<svg xmlns="http://www.w3.org/2000/svg" version="1.1" viewbox="0 0 400 340">
    <path fill="#535456" d="m182.43,27.083-3.4685,27.857c-0.31955,2.5777-2.5108,4.5455-5.1096,4.5127-7.5102-0.09519-15.126,1.905-21.936,6.2027-18.892,11.927-24.446,37.199-12.284,55.941,12.098,18.645,37.019,23.951,55.664,11.854,2.7989-1.8165,5.2981-3.9231,7.4822-6.2532,1.7063-1.8197,4.4924-2.0914,6.4865-0.59458l22.636,16.979c2.2482,1.6879,2.5767,4.9185,0.74262,7.0495-1.0202,1.1861-2.0882,2.3404-3.1885,3.4706l3.3686,10.673c0.63952,2.0301-0.14705,4.246-1.9335,5.4047l-16.834,10.923c-1.7856,1.1578-4.1308,0.97399-5.7234-0.4369l-8.4465-7.4878c-6.0185,2.1624-12.212,3.5418-18.437,4.1696l-4.354,10.506c-0.81424,1.9657-2.8404,3.1466-4.9533,2.8867l-19.917-2.4542c-2.1121-0.26072-3.7912-1.8983-4.1045-4.003l-1.6877-11.354c-5.8532-2.1407-11.469-4.9822-16.707-8.495l-10.157,5.2863c-1.8878,0.98194-4.1988,0.58472-5.6501-0.97197l-13.68-14.682c-1.4514-1.5567-1.6846-3.89-0.57108-5.7046l5.9896-9.7567c-3.1969-5.5552-5.6425-11.356-7.3517-17.279l-11.149-2.4719c-2.0784-0.46085-3.5934-2.2518-3.7034-4.377l-1.043-20.049c-0.10992-2.1251,1.21-4.063,3.2296-4.7369l10.828-3.614c1.0957-6.1872,2.9316-12.237,5.4791-18.008l-6.9281-9.0277c-1.2957-1.6886-1.3086-4.0365-0.0268-5.7353l12.085-16.021c1.2809-1.6996,3.5416-2.3318,5.5216-1.5506l10.511,4.1501c2.4368-2.0433,5.0234-3.9622,7.7594-5.7383,2.6496-1.7183,5.3634-3.2538,8.1291-4.6132l0.49113-11.241c0.0929-2.127,1.5931-3.9289,3.6667-4.4072l19.555-4.5063c2.0736-0.47831,4.2119,0.48719,5.2262,2.3575l5.3223,9.8218c1.5684-0.001,3.1334,0.04319,4.695,0.13623,2.7706,0.14692,4.8234,2.6136,4.481,5.362"/>
    <path fill="#509ad9" d="m229.53,63.634c-16.596,10.387-78.156,25.488-78.156,25.488-0.35662,0.105-0.30344,0.63617,0.23404,0.5501,0,0,63.124-11.426,64.639-8.061,1.6812,3.7356-39.55,35.347-51.618,40.94-0.35029,0.16193-0.12638,0.688,0.23404,0.55013,0,0,61.59-31.925,75.823-37.739,11.419-4.6667,20.152-1.4441,23.596,9.2736,5.3262,16.58,2.4187,60.116,10.227,65.781,0.58305,0.42233,1.2685,0.24269,1.8729-0.80328,1.1797-2.0413,35.02-72.176,21.421-84.556-4.0954-3.7278-12.06-7.9875-7.3908-11.925,2.9249-2.4677,10.609-6.7242,11.293-13.632-7.8853-11.429-19.535-3.3529-24.17-6.0828-6.2315-3.6706-2.7783-9.5378-8.1006-14.457-12.9-11.934-72.7-23.295-74.21-23.554-4.3038-0.73554-5.2523-0.461-4.9625,0.7265,2.8696,11.752,32.257,23.324,41.47,31.228,10.851,9.3105,6.9555,20.548-2.1887,26.27"/>
    <text style="text-anchor:middle;text-align:center;" font-size="22px" y="315" x="200" font-family="Nexa Light" fill="#535456">Avatud Lähtekoodiga ja</text>
    <text style="text-anchor:middle;text-align:center;" font-size="22px" y="340" x="200" font-family="Nexa Light" fill="#535456">Vaba Tarkvara Liit</text>
    <text style="text-anchor:middle;text-align:center;" font-size="108px" font-style="normal" y="288" x="200" font-family="Nexa Light" fill="#509ad9">Alvatal</text>
</svg>
