<!-- Generator: Adobe Illustrator 14.0.0, SVG Export Plug-In . SVG Version: 6.00 Build 43363)  -->
<svg xml:space="preserve" height="570" xmlns:dc="http://purl.org/dc/elements/1.1/" viewBox="0 0 510 569.99999" width="510" version="1.1" xmlns:xlink="http://www.w3.org/1999/xlink" xmlns:cc="http://creativecommons.org/ns#" xmlns:rdf="http://www.w3.org/1999/02/22-rdf-syntax-ns#" xmlns="http://www.w3.org/2000/svg" y="0px" x="0px" enable-background="new 0 0 2160.216 1713.172"><metadata><rdf:RDF><cc:Work rdf:about=""><dc:format>image/svg+xml</dc:format><dc:type rdf:resource="http://purl.org/dc/dcmitype/StillImage"/><dc:title/></cc:Work></rdf:RDF></metadata><defs><filter id="filter5821" height="1.2588807" width="1.0823363" color-interpolation-filters="sRGB" y="-0.12944037" x="-0.041168164"><feGaussianBlur stdDeviation="8.0777256"/></filter><filter id="filter5825" color-interpolation-filters="sRGB"><feGaussianBlur stdDeviation="3.6696718"/></filter><linearGradient id="linearGradient5103" y2="1305.1" xlink:href="#SVGID_35_" gradientUnits="userSpaceOnUse" x2="1270.5" y1="1305.1" x1="1150.5"/><linearGradient id="linearGradient5105" y2="1264.9" xlink:href="#SVGID_36_" gradientUnits="userSpaceOnUse" x2="1270.5" y1="1264.9" x1="1150.5"/><linearGradient id="linearGradient4487" y2="-3444.8" gradientUnits="userSpaceOnUse" x2="-1644.5" gradientTransform="matrix(0.2376,-0.9714,-0.9714,-0.2376,-1794.3491,-1897.8428)" y1="-3441.8" x1="-1664"><stop stop-color="#F7EC30" offset="0"/><stop stop-color="#FAAE40" offset="1"/></linearGradient><linearGradient id="linearGradient4489" y2="-8204.8" gradientUnits="userSpaceOnUse" x2="-905.17" gradientTransform="matrix(0.8559,-0.5171,-0.5171,-0.8559,-2252.5208,-6984.2539)" y1="-8201.6" x1="-925.98"><stop stop-color="#F7EC30" offset="0"/><stop stop-color="#FAAE40" offset="1"/></linearGradient><linearGradient id="linearGradient4491" y2="-10290" gradientUnits="userSpaceOnUse" x2="-42.563" gradientTransform="matrix(0.9997,0.0244,0.0244,-0.9997,1562.1204,-9766.4043)" y1="-10286" x1="-66.996"><stop stop-color="#F7EC30" offset="0"/><stop stop-color="#FAAE40" offset="1"/></linearGradient><linearGradient id="linearGradient4493" y2="-10464" gradientUnits="userSpaceOnUse" x2="1338.9" gradientTransform="matrix(0.802,0.5973,0.5973,-0.802,6476.9604,-8626.8252)" y1="-10461" x1="1313.9"><stop stop-color="#F7EC30" offset="0"/><stop stop-color="#FAAE40" offset="1"/></linearGradient><linearGradient id="linearGradient4495" y2="271.15" gradientUnits="userSpaceOnUse" x2="-1577.8" gradientTransform="matrix(-0.3327,-0.943,-0.943,0.3327,859.1079,-1024.2324)" y1="273.75" x1="-1594.7"><stop stop-color="#F7EC30" offset="0"/><stop stop-color="#FAAE40" offset="1"/></linearGradient><linearGradient id="linearGradient4497" y2="2326" gradientUnits="userSpaceOnUse" x2="-1826.2" gradientTransform="matrix(-0.6493,-0.7605,-0.7605,0.6493,1703.574,-2306.6292)" y1="2328.1" x1="-1839.8"><stop stop-color="#F7EC30" offset="0"/><stop stop-color="#FAAE40" offset="1"/></linearGradient><linearGradient id="linearGradient4499" y2="3304.7" gradientUnits="userSpaceOnUse" x2="-765.99" gradientTransform="matrix(-0.9803,-0.1975,-0.1975,0.9803,1031.1814,-2761.6814)" y1="3306.4" x1="-776.6"><stop stop-color="#F7EC30" offset="0"/><stop stop-color="#FAAE40" offset="1"/></linearGradient><linearGradient id="linearGradient4501" y2="634.62" gradientUnits="userSpaceOnUse" x2="1270.5" y1="634.62" x1="1150.5"><stop stop-color="#F7EC30" offset="0"/><stop stop-color="#FAAE40" offset="1"/></linearGradient><linearGradient id="linearGradient4503" y2="585.56" gradientUnits="userSpaceOnUse" x2="1270.5" y1="585.56" x1="1150.5"><stop stop-color="#F7EC30" offset="0"/><stop stop-color="#FAAE40" offset="1"/></linearGradient><linearGradient id="linearGradient4505" y2="594.37" gradientUnits="userSpaceOnUse" x2="1270.5" y1="594.37" x1="1150.5"><stop stop-color="#F7EC30" offset="0"/><stop stop-color="#FAAE40" offset="1"/></linearGradient><linearGradient id="linearGradient4507" y2="621.24" gradientUnits="userSpaceOnUse" x2="654.18" gradientTransform="matrix(-1,0,0,1,1789.3867,0)" y1="621.24" x1="458.28"><stop stop-color="#8BC541" offset="0"/><stop stop-color="#39B24A" offset="1"/></linearGradient><linearGradient id="linearGradient4509" y2="637.59" gradientUnits="userSpaceOnUse" x2="647.42" gradientTransform="matrix(-1,0,0,1,1790.9893,0)" y1="637.59" x1="462.67"><stop stop-color="#FFF" offset="0"/><stop stop-color="#FFF" stop-opacity="0" offset="1"/></linearGradient><linearGradient id="linearGradient5121" y2="598.71" gradientUnits="userSpaceOnUse" x2="1344.8" gradientTransform="translate(82.446824,399.43798)" y1="512.7" x1="1344.8"><stop stop-color="#F7EC30" offset="0"/><stop stop-color="#FAAE40" offset="1"/></linearGradient><linearGradient id="linearGradient5123" y2="598.71" gradientUnits="userSpaceOnUse" x2="1384.2" gradientTransform="translate(82.446824,399.43798)" y1="512.7" x1="1384.2"><stop stop-color="#F7EC30" offset="0"/><stop stop-color="#FAAE40" offset="1"/></linearGradient><linearGradient id="linearGradient5125" y2="598.71" gradientUnits="userSpaceOnUse" x2="1450.4" gradientTransform="translate(82.446824,399.43798)" y1="512.7" x1="1450.4"><stop stop-color="#F7EC30" offset="0"/><stop stop-color="#FAAE40" offset="1"/></linearGradient><linearGradient id="linearGradient5127" y2="598.71" gradientUnits="userSpaceOnUse" x2="1492.3" gradientTransform="translate(82.446824,399.43798)" y1="512.7" x1="1492.3"><stop stop-color="#F7EC30" offset="0"/><stop stop-color="#FAAE40" offset="1"/></linearGradient><linearGradient id="linearGradient5129" y2="598.71" gradientUnits="userSpaceOnUse" x2="1537.4" gradientTransform="translate(82.446824,399.43798)" y1="512.7" x1="1537.4"><stop stop-color="#F7EC30" offset="0"/><stop stop-color="#FAAE40" offset="1"/></linearGradient><linearGradient id="linearGradient5131" y2="598.71" gradientUnits="userSpaceOnUse" x2="1573.1" gradientTransform="translate(82.446824,399.43798)" y1="512.7" x1="1573.1"><stop stop-color="#F7EC30" offset="0"/><stop stop-color="#FAAE40" offset="1"/></linearGradient><linearGradient id="linearGradient5133" y2="598.71" gradientUnits="userSpaceOnUse" x2="1604.2" gradientTransform="translate(82.446824,399.43798)" y1="512.7" x1="1604.2"><stop stop-color="#F7EC30" offset="0"/><stop stop-color="#FAAE40" offset="1"/></linearGradient><linearGradient id="linearGradient5135" y2="598.71" gradientUnits="userSpaceOnUse" x2="1421.6" y1="512.7" x1="1421.6"><stop stop-color="#F7EC30" offset="0"/><stop stop-color="#FAAE40" offset="1"/></linearGradient><linearGradient id="linearGradient5137" y2="548.26" gradientUnits="userSpaceOnUse" x2="1435.1" y1="537.76" x1="1427.3"><stop stop-color="#F69220" offset="0"/><stop stop-color="#F05A29" offset="0.4724"/><stop stop-color="#EE4037" offset="0.4785"/><stop stop-color="#F05A29" offset="1"/></linearGradient><linearGradient id="linearGradient5139" y2="598.71" gradientUnits="userSpaceOnUse" x2="1422.8" y1="512.7" x1="1422.8"><stop stop-color="#F7EC30" offset="0"/><stop stop-color="#FAAE40" offset="1"/></linearGradient><linearGradient id="linearGradient5141" y2="661.91" gradientUnits="userSpaceOnUse" x2="1386.8" y1="595.19" x1="1386.8"><stop stop-color="#F7EC30" offset="0"/><stop stop-color="#FAAE40" offset="1"/></linearGradient><linearGradient id="linearGradient5143" y2="661.91" gradientUnits="userSpaceOnUse" x2="1418.7" y1="595.19" x1="1418.7"><stop stop-color="#F7EC30" offset="0"/><stop stop-color="#FAAE40" offset="1"/></linearGradient><linearGradient id="linearGradient5145" y2="661.91" gradientUnits="userSpaceOnUse" x2="1449.9" y1="595.19" x1="1449.9"><stop stop-color="#F7EC30" offset="0"/><stop stop-color="#FAAE40" offset="1"/></linearGradient><linearGradient id="linearGradient5147" y2="661.91" gradientUnits="userSpaceOnUse" x2="1486.4" y1="595.19" x1="1486.4"><stop stop-color="#F7EC30" offset="0"/><stop stop-color="#FAAE40" offset="1"/></linearGradient><linearGradient id="linearGradient5149" y2="661.91" gradientUnits="userSpaceOnUse" x2="1564.6" y1="595.19" x1="1564.6"><stop stop-color="#F7EC30" offset="0"/><stop stop-color="#FAAE40" offset="1"/></linearGradient><linearGradient id="linearGradient5152" y2="661.91" gradientUnits="userSpaceOnUse" x2="1613.4" y1="595.19" x1="1613.4"><stop stop-color="#F7EC30" offset="0"/><stop stop-color="#FAAE40" offset="1"/></linearGradient><linearGradient id="linearGradient5154" y2="661.91" gradientUnits="userSpaceOnUse" x2="1686.1" y1="595.19" x1="1686.1"><stop stop-color="#F7EC30" offset="0"/><stop stop-color="#FAAE40" offset="1"/></linearGradient><linearGradient id="linearGradient5156" y2="661.91" gradientUnits="userSpaceOnUse" x2="1733.2" y1="595.19" x1="1733.2"><stop stop-color="#F7EC30" offset="0"/><stop stop-color="#FAAE40" offset="1"/></linearGradient><linearGradient id="linearGradient5158" y2="661.91" gradientUnits="userSpaceOnUse" x2="1773.3" y1="595.19" x1="1773.3"><stop stop-color="#F7EC30" offset="0"/><stop stop-color="#FAAE40" offset="1"/></linearGradient><linearGradient id="linearGradient5160" y2="661.91" gradientUnits="userSpaceOnUse" x2="1526.8" y1="595.19" x1="1526.8"><stop stop-color="#F7EC30" offset="0"/><stop stop-color="#FAAE40" offset="1"/></linearGradient></defs><g opacity="0.84362135" transform="translate(-468.18292,-2122.8702)"><g filter="url(#filter5825)" transform="matrix(2.201212,0,0,2.201212,-845.96175,-582.81139)"><g transform="translate(-506.40581,78.509761)"><path d="m1164.1,1209s7.496,9.434,5.707-0.229c-1.791-9.666-16.127-28.551-23.35-23.98-7.227,4.57-3.574,8.334,0.963,10.764,4.541,2.428,13.486,8.582,16.68,13.445z"/><path d="m1202.2,1194.4s-1.49,12.77,4.471,4.141c5.955-8.629,9.438-33.689,0.545-35.707-8.895-2.018-8.99,3.574-7.408,8.832,1.583,5.258,3.665,16.658,2.392,22.734z"/><path d="m1244.3,1198.8s-9.543,11.699,1.805,6.922c11.348-4.781,30.627-27.389,23.094-35.006-7.531-7.615-11.16-2.137-12.91,4.068-1.756,6.207-6.895,18.803-11.989,24.016z"/><path d="m1274.8,1229.1s-14.912,4.139-2.586,6.859c12.326,2.715,41.84-4.787,40.049-15.621-1.789-10.833-8.07-8.397-13.213-4.241-5.143,4.153-16.9,11.655-24.25,13.003z"/><path d="m1140.1,1237.8s9.912,3.295,4.027-2.869c-5.883-6.168-25.25-13.072-28.322-6.324-3.074,6.744,1.359,7.74,5.809,7.348,4.443-0.391,13.859-0.167,18.486,1.845z"/><path d="m1133.1,1269.6s8.361-0.393,2.186-3.311c-6.18-2.914-22.656-2.502-23.012,3.43s3.252,5.398,6.463,3.826c3.21-1.576,10.318-4.119,14.363-3.945z"/><path d="m1140.4,1297.7s4.957-4.283-0.254-3.096c-5.207,1.189-15.152,9.398-12.506,13.225,2.639,3.824,4.607,1.756,5.824-0.764,1.219-2.521,4.361-7.519,6.936-9.365z"/></g><path fill="none" d="m670.84,1335.3c7.564-18.068,28.518-26.512,46.803-18.855,4.268,1.783,8.002,4.299,11.141,7.32-3.705-4.115-8.361-7.502-13.818-9.789-19.541-8.18-41.934,0.844-50.018,20.154-5.746,13.727-2.711,28.951,6.541,39.549,0.914-1.621,1.855-3.221,2.83-4.795-6.54-9.613-8.265-22.152-3.479-33.584z"/><g transform="translate(-506.40581,78.509761)"><path fill="none" d="m1177.2,1256.8c7.564-18.068,28.518-26.512,46.803-18.855,4.268,1.783,8.002,4.299,11.141,7.32-3.705-4.115-8.361-7.502-13.818-9.789-19.541-8.18-41.934,0.844-50.018,20.154-4.324,10.33-4.571,23.145-0.488,33.371,2.1-1.572,4.279-3.146,6.535-4.711-3.636-8.496-3.983-18.346-0.155-27.49z"/><path fill="none" d="m1210.5,1242.4c-16.432,0-29.799,13.367-29.799,29.799,0,3.123,0.492,6.129,1.39,8.959,15.12-9.9,33.333-19.043,53.989-24.256h-0.021c-5.215-8.678-14.719-14.5-25.559-14.5z"/><path fill="none" d="m1269.7,1262c0.391,2.279,0.67,4.596,0.797,6.953-6.412,0.486-9.91-0.643-9.91-0.643-2.826-3.178-6.027-5.486-9.271-7.166-2.14,0.225-4.306,0.551-6.483,0.988-28.584,5.723-52.715,19.594-70.668,33.189,0.666,0.986,1.367,1.945,2.143,2.834-3.617,6.422-5.184,10.254-7.91,16.875-2.753-2.711-5.245-5.686-7.438-8.881-7.471,6.619-13.18,12.559-16.867,16.652h182.91c-5.583-15.414-22.7-53.537-57.301-60.801z"/><path fill="url(#linearGradient5103)" d="m1176.3,1298.1c-0.775-0.889-1.477-1.848-2.143-2.834-4.87,3.686-9.279,7.35-13.205,10.828,2.192,3.195,4.685,6.17,7.438,8.881,2.727-6.621,4.293-10.453,7.91-16.875z"/><path d="m1171.4,1255.7c8.084-19.311,30.477-28.334,50.018-20.154,5.457,2.287,10.113,5.674,13.818,9.789-3.139-3.021-6.873-5.537-11.141-7.32-18.285-7.656-39.238,0.787-46.803,18.855-3.828,9.145-3.48,18.994,0.154,27.49,1.537-1.064,3.108-2.125,4.716-3.178-0.897-2.83-1.39-5.836-1.39-8.959,0-16.432,13.367-29.799,29.799-29.799,10.84,0,20.344,5.822,25.559,14.5h0.021c2.418-0.609,4.866-1.172,7.351-1.67,4.903-0.982,9.768-1.48,14.457-1.48,3.478,0,6.815,0.273,10.022,0.77-7.547-24.543-30.395-42.384-57.41-42.384-33.172,0-60.062,26.89-60.062,60.062,0,10.051,2.485,19.512,6.85,27.832,4.051-3.543,8.577-7.258,13.553-10.984-4.083-10.228-3.836-23.042,0.488-33.372z"/><path fill="url(#linearGradient5105)" d="m1260.6,1268.3s3.498,1.129,9.91,0.643c-0.127-2.357-0.406-4.674-0.797-6.953-3.725-0.781-7.648-1.211-11.784-1.211-2.16,0-4.366,0.121-6.6,0.355,3.243,1.679,6.444,3.988,9.271,7.166z"/><path d="m1269.7,1262c-3.725-0.781-7.648-1.211-11.784-1.211-2.16,0-4.366,0.121-6.6,0.355-2.14,0.225-4.306,0.551-6.483,0.988-28.584,5.723-52.715,19.594-70.668,33.189-4.87,3.686-9.279,7.35-13.205,10.828-7.471,6.619-13.18,12.559-16.867,16.652h182.91c-5.583-15.414-22.7-53.537-57.301-60.801z"/></g></g><g filter="url(#filter5821)" transform="translate(-328.49672,1257.2632)"><path d="m833.39,1320.7c1.158,0,2.318-0.096,3.48-0.289,1.158-0.191,2.191-0.533,3.1-1.027,0.908-0.492,1.652-1.191,2.232-2.096,0.578-0.902,0.871-2.066,0.871-3.492,0-1.096-0.279-2.041-0.834-2.836-0.557-0.793-1.262-1.52-2.117-2.176-0.859-0.658-1.816-1.26-2.875-1.809-1.061-0.547-2.119-1.15-3.178-1.809-1.363-0.875-2.648-1.809-3.857-2.793-1.211-0.986-2.244-2.096-3.104-3.328-0.857-1.234-1.537-2.603-2.041-4.11-0.506-1.506-0.756-3.246-0.756-5.217,0-2.52,0.441-4.861,1.322-7.027,0.883-2.164,2.195-4.039,3.934-5.629,1.74-1.588,3.922-2.836,6.545-3.738,2.621-0.904,5.699-1.355,9.229-1.355,1.613,0,3.178,0.15,4.691,0.451s2.922,0.672,4.234,1.109c1.311,0.439,2.51,0.945,3.594,1.52,1.084,0.576,2.006,1.139,2.76,1.686l-4.916,9.449c-1.26-1.039-2.797-1.918-4.613-2.629s-3.783-1.068-5.9-1.068c-1.162,0-2.27,0.111-3.33,0.328-1.059,0.221-1.992,0.59-2.799,1.109-0.807,0.521-1.449,1.191-1.928,2.014-0.48,0.822-0.719,1.838-0.719,3.041,0,1.098,0.188,2.014,0.566,2.754,0.379,0.738,0.871,1.383,1.475,1.93,0.605,0.549,1.312,1.043,2.119,1.48s1.664,0.904,2.572,1.396c1.562,0.877,3.076,1.808,4.539,2.794,1.461,0.986,2.746,2.123,3.859,3.41,1.107,1.289,1.99,2.752,2.646,4.396,0.654,1.645,0.982,3.588,0.982,5.834,0,3.123-0.529,5.836-1.588,8.137s-2.547,4.219-4.463,5.752c-1.918,1.535-4.199,2.672-6.848,3.41-2.646,0.74-5.584,1.109-8.812,1.109-2.117,0-4.098-0.191-5.939-0.574-1.84-0.385-3.504-0.836-4.99-1.355-1.49-0.521-2.775-1.082-3.859-1.686-1.086-0.602-1.955-1.15-2.609-1.643l4.992-9.781c0.605,0.439,1.336,0.904,2.193,1.398,0.857,0.492,1.828,0.959,2.912,1.396,1.084,0.439,2.232,0.809,3.443,1.109,1.211,0.304,2.473,0.455,3.785,0.455z"/><path d="m874.51,1331.4c-2.674,0-4.994-0.438-6.959-1.314-1.967-0.875-3.594-2.109-4.881-3.699-1.285-1.586-2.258-3.463-2.91-5.629-0.656-2.162-0.986-4.561-0.986-7.189,0-3.287,0.494-6.574,1.477-9.861s2.434-6.245,4.35-8.876c1.916-2.629,4.262-4.777,7.035-6.451,2.773-1.67,5.951-2.506,9.533-2.506,2.619,0,4.928,0.439,6.92,1.314,1.992,0.877,3.631,2.109,4.918,3.699,1.285,1.59,2.256,3.465,2.912,5.629,0.654,2.165,0.982,4.56,0.982,7.19,0,3.287-0.479,6.574-1.438,9.861-0.957,3.287-2.371,6.246-4.236,8.875-1.865,2.631-4.197,4.781-6.996,6.451s-6.04,2.506-9.721,2.506zm5.597-35.171c-1.664,0-3.127,0.52-4.387,1.56-1.264,1.043-2.322,2.357-3.178,3.945-0.857,1.59-1.502,3.328-1.928,5.219-0.432,1.891-0.645,3.686-0.645,5.383,0,2.793,0.402,4.945,1.211,6.451,0.807,1.506,2.27,2.26,4.389,2.26,1.662,0,3.125-0.521,4.385-1.562,1.262-1.039,2.32-2.354,3.18-3.943,0.855-1.59,1.5-3.33,1.928-5.219,0.428-1.891,0.643-3.684,0.643-5.383,0-2.795-0.402-4.943-1.209-6.451-0.809-1.508-2.272-2.26-4.389-2.26z"/><path d="m936.68,1276.2,11.727-1.971-2.875,12.736h14.18l-2.27,10.025h-14.104l-3.328,15.122c-0.303,1.26-0.492,2.438-0.568,3.533s0.049,2.041,0.379,2.836c0.328,0.793,0.895,1.41,1.703,1.848,0.805,0.439,1.914,0.658,3.328,0.658,1.209,0,2.383-0.123,3.516-0.371,1.137-0.246,2.281-0.588,3.443-1.027l0.832,9.369c-1.514,0.604-3.152,1.123-4.916,1.561-1.768,0.439-3.859,0.658-6.279,0.658-3.48,0-6.18-0.562-8.096-1.684-1.916-1.123-3.277-2.658-4.084-4.604-0.807-1.943-1.16-4.176-1.059-6.697,0.1-2.52,0.453-5.178,1.059-7.971l7.412-34.021z"/><path d="m982.76,1304.9c-0.961,2.248-2.031,4.533-3.215,6.861-1.186,2.33-2.398,4.604-3.633,6.822-1.236,2.219-2.434,4.328-3.592,6.326-1.162,2.002-2.193,3.768-3.102,5.301h-8.777c-0.402-2.301-0.818-5.039-1.246-8.217-0.43-3.178-0.846-6.643-1.25-10.396-0.404-3.752-0.77-7.725-1.096-11.916-0.33-4.19-0.566-8.423-0.719-12.696h11.045c0,1.973,0.012,4.109,0.037,6.41s0.076,4.685,0.15,7.149c0.076,2.467,0.189,4.984,0.342,7.561,0.15,2.576,0.352,5.123,0.604,7.643,1.262-2.301,2.51-4.697,3.746-7.191,1.234-2.492,2.42-4.984,3.555-7.479,1.135-2.492,2.193-4.942,3.178-7.354,0.982-2.41,1.852-4.656,2.611-6.738h9.379c0,3.945,0.062,8.355,0.189,13.231,0.125,4.877,0.441,10.053,0.945,15.531,1.363-2.465,2.621-5,3.783-7.602,1.16-2.602,2.23-5.164,3.215-7.684,0.982-2.52,1.865-4.931,2.646-7.231,0.783-2.301,1.475-4.383,2.08-6.246h11.955c-1.01,2.74-2.207,5.822-3.594,9.246-1.387,3.423-2.988,7.024-4.803,10.806-1.816,3.779-3.861,7.643-6.129,11.588-2.27,3.943-4.793,7.807-7.566,11.586h-8.773c-0.607-4.49-1.061-8.793-1.361-12.902-0.304-4.108-0.505-8.245-0.604-12.409z"/><path d="m1046.1,1311.6c-0.707,3.123-0.908,6.26-0.605,9.41s0.881,5.957,1.74,8.422l-10.061,1.562c-0.303-0.658-0.582-1.287-0.832-1.891-0.254-0.602-0.506-1.287-0.758-2.055-1.412,1.262-2.977,2.301-4.689,3.123-1.715,0.822-3.631,1.232-5.75,1.232-2.521,0-4.678-0.48-6.467-1.438-1.791-0.957-3.254-2.246-4.389-3.861-1.135-1.617-1.955-3.508-2.459-5.672s-0.756-4.479-0.756-6.943c0-3.781,0.617-7.342,1.854-10.684s2.951-6.259,5.145-8.751,4.777-4.451,7.754-5.877c2.975-1.424,6.203-2.137,9.682-2.137,0.453,0,1.25,0.029,2.383,0.082,1.135,0.057,2.434,0.18,3.896,0.371s3.002,0.506,4.613,0.943c1.615,0.439,3.152,1.043,4.617,1.811l-4.918,22.353zm-7.867-15.12c-0.656-0.109-1.25-0.191-1.777-0.246-0.531-0.055-1.172-0.082-1.93-0.082-1.715,0-3.316,0.465-4.803,1.396-1.49,0.932-2.789,2.15-3.896,3.658-1.109,1.508-1.98,3.244-2.611,5.217s-0.945,4.027-0.945,6.164c0,2.629,0.404,4.713,1.211,6.246s2.293,2.301,4.463,2.301c1.16,0,2.205-0.246,3.141-0.74,0.932-0.492,1.93-1.314,2.986-2.465,0.102-1.369,0.266-2.809,0.492-4.314,0.229-1.506,0.467-2.889,0.721-4.15l2.948-12.985z"/><path d="m1080.2,1297.5c-1.012-0.272-2.006-0.534-2.988-0.78-0.984-0.246-2.436-0.369-4.352-0.369-0.707,0-1.486,0.068-2.344,0.205s-1.562,0.287-2.119,0.451l-7.336,33.2h-11.271l9.078-40.925c2.166-0.766,4.6-1.492,7.299-2.178,2.695-0.684,5.734-1.027,9.115-1.027,1.26,0,2.658,0.125,4.199,0.371,1.537,0.246,2.887,0.645,4.045,1.191l-3.326,9.861z"/><path d="m1079.7,1313.3c0-3.506,0.566-6.904,1.701-10.191s2.734-6.204,4.803-8.751,4.578-4.602,7.527-6.164c2.951-1.561,6.215-2.342,9.799-2.342,1.762,0,3.402,0.275,4.916,0.822,1.512,0.549,2.836,1.342,3.971,2.383s2.016,2.316,2.646,3.822,0.947,3.219,0.947,5.136c0,3.068-0.633,5.67-1.893,7.807-1.26,2.135-3.014,3.875-5.256,5.217-2.244,1.344-4.906,2.316-7.982,2.918-3.076,0.604-6.428,0.904-10.061,0.904,0.354,2.301,1.123,3.932,2.307,4.891,1.186,0.959,3.064,1.438,5.637,1.438,1.613,0,3.254-0.15,4.916-0.453,1.666-0.299,3.227-0.752,4.689-1.355l0.834,9.615c-1.414,0.604-3.215,1.15-5.41,1.645-2.191,0.492-4.574,0.738-7.148,0.738-3.127,0-5.762-0.48-7.904-1.438-2.145-0.957-3.885-2.26-5.219-3.902-1.338-1.645-2.309-3.562-2.914-5.754s-0.906-4.521-0.906-6.986zm22.011-17.751c-2.57,0-4.828,1-6.77,2.999-1.943,2-3.215,4.643-3.82,7.932,3.127-0.109,5.648-0.398,7.564-0.863s3.406-1.027,4.463-1.686c1.059-0.658,1.766-1.369,2.119-2.137,0.352-0.766,0.529-1.533,0.529-2.301,0.001-2.629-1.36-3.944-4.085-3.944z"/><g transform="translate(-506.40581,78.509761)"><polygon points="1421.5,1219.3,1421.7,1218.5,1421.7,1218.5"/><polygon points="1434.9,1218.5,1437.2,1208.5,1427.3,1208.5,1425.1,1218.5"/><path d="m1439.7,1188.7c-1.691-0.52-3.67-0.781-5.939-0.781-5.951,0-10.566,1.59-13.844,4.766-3.279,3.18-5.549,7.672-6.809,13.479l-7.865,35.829c-0.406,1.92-0.922,3.986-1.553,6.205-0.447,1.572-0.979,3.113-1.551,4.643h11.324c1.285-3.688,2.506-8.141,3.656-13.395l4.387-19.93,0.055-0.244,0.172-0.782,2.215-10.025h-0.023l0.453-2.137c0.504-2.301,1.426-4.217,2.762-5.752,1.334-1.533,3.393-2.301,6.164-2.301,1.01,0,2.105,0.123,3.291,0.369s2.232,0.617,3.141,1.109l3.781-9.615c-0.858-0.438-2.13-0.917-3.819-1.438z"/></g><g transform="translate(-506.40581,78.509761)"><path d="m1363.6,1322.2,12.557-56.949h33.967l-2.42,10.602h-22.3l-2.648,12.162h19.594l-2.344,10.602h-19.594l-5.221,23.584h-11.724z"/><path d="m1432.3,1289.5c-1.01-0.273-2.004-0.533-2.988-0.779-0.984-0.248-2.434-0.371-4.35-0.371-0.707,0-1.488,0.07-2.346,0.205-0.857,0.139-1.562,0.289-2.119,0.453l-7.336,33.199h-11.271l9.078-40.924c2.168-0.766,4.6-1.492,7.299-2.178,2.697-0.686,5.736-1.027,9.115-1.027,1.26,0,2.66,0.123,4.199,0.369,1.537,0.246,2.887,0.645,4.047,1.191l-3.328,9.862z"/><path d="m1431.8,1305.2c0-3.506,0.566-6.904,1.701-10.191s2.734-6.203,4.805-8.752c2.066-2.547,4.576-4.602,7.525-6.162,2.951-1.562,6.215-2.342,9.799-2.342,1.764,0,3.402,0.273,4.916,0.82,1.514,0.549,2.838,1.344,3.975,2.385,1.133,1.041,2.014,2.314,2.646,3.82,0.629,1.508,0.945,3.219,0.945,5.137,0,3.068-0.631,5.67-1.893,7.807-1.26,2.137-3.014,3.877-5.258,5.219s-4.904,2.314-7.98,2.918c-3.078,0.602-6.432,0.902-10.062,0.902,0.354,2.301,1.123,3.932,2.309,4.891,1.184,0.959,3.062,1.438,5.635,1.438,1.615,0,3.254-0.15,4.916-0.451,1.666-0.301,3.229-0.752,4.691-1.357l0.832,9.615c-1.412,0.604-3.215,1.15-5.408,1.645-2.193,0.492-4.576,0.738-7.148,0.738-3.127,0-5.762-0.48-7.906-1.438s-3.883-2.26-5.219-3.902c-1.338-1.645-2.307-3.561-2.912-5.752-0.608-2.193-0.909-4.523-0.909-6.988zm22.012-17.75c-2.57,0-4.83,1-6.768,2.998-1.943,2.002-3.215,4.645-3.822,7.932,3.127-0.109,5.648-0.398,7.566-0.863,1.914-0.465,3.404-1.027,4.461-1.686,1.061-0.656,1.766-1.369,2.119-2.137,0.352-0.766,0.529-1.533,0.529-2.301,0.001-2.629-1.358-3.943-4.085-3.943z"/><path d="m1468.2,1305.2c0-3.506,0.566-6.904,1.701-10.191s2.734-6.203,4.803-8.752c2.068-2.547,4.58-4.602,7.527-6.162,2.951-1.562,6.217-2.342,9.799-2.342,1.764,0,3.402,0.273,4.916,0.82,1.514,0.549,2.836,1.344,3.973,2.385,1.133,1.041,2.014,2.314,2.646,3.82,0.629,1.508,0.945,3.219,0.945,5.137,0,3.068-0.631,5.67-1.893,7.807-1.26,2.137-3.012,3.877-5.256,5.219s-4.904,2.314-7.98,2.918c-3.078,0.602-6.43,0.902-10.062,0.902,0.354,2.301,1.123,3.932,2.309,4.891,1.184,0.959,3.062,1.438,5.635,1.438,1.613,0,3.254-0.15,4.918-0.451s3.227-0.752,4.689-1.357l0.832,9.615c-1.412,0.604-3.215,1.15-5.408,1.645-2.193,0.492-4.576,0.738-7.148,0.738-3.127,0-5.762-0.48-7.904-1.438-2.146-0.957-3.885-2.26-5.221-3.902-1.338-1.645-2.309-3.561-2.914-5.752s-0.907-4.523-0.907-6.988zm22.013-17.75c-2.572,0-4.83,1-6.771,2.998-1.941,2.002-3.215,4.645-3.82,7.932,3.127-0.109,5.648-0.398,7.566-0.863,1.914-0.465,3.404-1.027,4.461-1.686,1.061-0.656,1.766-1.369,2.119-2.137,0.352-0.766,0.531-1.533,0.531-2.301,0-2.629-1.363-3.943-4.086-3.943z"/><path d="m1561.3,1323.3c-2.676,0-4.994-0.438-6.961-1.314-1.967-0.875-3.594-2.107-4.879-3.697-1.287-1.588-2.26-3.465-2.912-5.629-0.656-2.164-0.984-4.562-0.984-7.191,0-3.287,0.492-6.574,1.475-9.861,0.984-3.287,2.434-6.246,4.352-8.875,1.914-2.629,4.26-4.779,7.035-6.451,2.771-1.67,5.949-2.506,9.531-2.506,2.621,0,4.928,0.438,6.922,1.314,1.99,0.877,3.629,2.109,4.918,3.697,1.285,1.59,2.254,3.467,2.91,5.629,0.654,2.166,0.984,4.561,0.984,7.191,0,3.287-0.48,6.574-1.438,9.861-0.959,3.287-2.371,6.246-4.236,8.875-1.865,2.631-4.199,4.781-6.998,6.451s-6.039,2.506-9.719,2.506zm5.598-35.172c-1.666,0-3.129,0.521-4.389,1.562-1.262,1.041-2.32,2.355-3.178,3.943-0.857,1.59-1.5,3.328-1.928,5.219-0.43,1.891-0.645,3.686-0.645,5.383,0,2.795,0.404,4.945,1.211,6.451,0.807,1.508,2.27,2.26,4.389,2.26,1.664,0,3.125-0.521,4.387-1.562,1.26-1.039,2.318-2.354,3.178-3.943,0.855-1.588,1.5-3.328,1.928-5.219s0.643-3.684,0.643-5.383c0-2.795-0.402-4.943-1.209-6.451-0.807-1.506-2.272-2.26-4.387-2.26z"/><path d="m1592.3,1280.9c0.857-0.273,1.777-0.588,2.762-0.945,0.984-0.355,2.092-0.684,3.328-0.984,1.234-0.301,2.621-0.547,4.16-0.74,1.539-0.191,3.314-0.287,5.334-0.287,2.42,0,4.426,0.328,6.014,0.986,1.588,0.656,3.037,1.643,4.35,2.957,1.865-1.15,3.719-2.096,5.561-2.834,1.84-0.74,3.996-1.109,6.467-1.109,2.371,0,4.4,0.342,6.09,1.027s3.09,1.67,4.199,2.957c1.109,1.289,1.916,2.822,2.42,4.604,0.504,1.779,0.758,3.738,0.758,5.875,0,0.986-0.064,2.027-0.189,3.123-0.127,1.096-0.316,2.191-0.568,3.287l-5.145,23.338h-11.271l4.994-22.846c0.15-0.766,0.314-1.629,0.49-2.588,0.178-0.957,0.266-1.902,0.266-2.836,0-1.531-0.328-2.861-0.982-3.984-0.656-1.123-1.943-1.686-3.859-1.686-1.059,0-2.068,0.205-3.025,0.617-0.959,0.41-1.816,0.836-2.572,1.273,0.102,0.439,0.152,0.85,0.152,1.232v1.068c0,0.986-0.064,2.027-0.189,3.123-0.127,1.096-0.316,2.191-0.568,3.287l-5.143,23.338h-11.271l4.992-22.846c0.152-0.766,0.314-1.629,0.49-2.588,0.178-0.957,0.268-1.902,0.268-2.836,0-1.531-0.33-2.861-0.984-3.984-0.656-1.123-1.943-1.686-3.859-1.686-0.807,0-1.486,0.041-2.043,0.123-0.555,0.082-1.209,0.207-1.967,0.371l-7.336,33.445h-11.271l9.147-41.252z"/><path d="m1711.7,1287.4c0,5.535-0.832,10.492-2.496,14.875s-4.047,8.096-7.148,11.135c-3.102,3.041-6.873,5.383-11.309,7.027-4.439,1.643-9.457,2.465-15.055,2.465-2.119,0-4.564-0.137-7.338-0.41-2.775-0.275-5.447-0.713-8.02-1.316l12.18-54.977c2.875-0.602,5.635-1.027,8.283-1.273s5.031-0.369,7.15-0.369c3.73,0,7.072,0.547,10.021,1.643,2.951,1.096,5.447,2.658,7.49,4.684,2.041,2.027,3.594,4.438,4.652,7.232,1.06,2.792,1.59,5.889,1.59,9.284zm-37.596,24.49c0.553,0.055,1.121,0.096,1.699,0.123,0.58,0.029,1.375,0.041,2.385,0.041,3.277,0,6.24-0.547,8.887-1.645,2.65-1.094,4.893-2.67,6.734-4.725,1.842-2.053,3.266-4.574,4.273-7.561s1.514-6.34,1.514-10.066c0-1.918-0.229-3.658-0.682-5.219s-1.197-2.902-2.23-4.027c-1.033-1.121-2.371-1.984-4.01-2.588s-3.619-0.904-5.939-0.904c-1.512,0-3.051,0.084-4.613,0.248l-8.018,36.323z"/><path d="m1748.2,1303.5c-0.707,3.123-0.906,6.26-0.605,9.41,0.305,3.15,0.883,5.957,1.742,8.424l-10.062,1.561c-0.303-0.658-0.58-1.287-0.832-1.891-0.254-0.602-0.506-1.287-0.758-2.053-1.41,1.26-2.977,2.301-4.689,3.121-1.715,0.822-3.631,1.232-5.75,1.232-2.521,0-4.676-0.48-6.467-1.438s-3.252-2.246-4.389-3.861c-1.133-1.617-1.955-3.506-2.459-5.672-0.502-2.162-0.754-4.479-0.754-6.943,0-3.781,0.617-7.342,1.852-10.684,1.236-3.342,2.951-6.258,5.145-8.752,2.195-2.492,4.777-4.449,7.754-5.875,2.977-1.424,6.205-2.137,9.684-2.137,0.453,0,1.248,0.029,2.383,0.082,1.135,0.055,2.432,0.178,3.895,0.369,1.463,0.193,3.002,0.508,4.615,0.945,1.613,0.439,3.15,1.041,4.615,1.809l-4.92,22.353zm-7.867-15.121c-0.656-0.109-1.248-0.191-1.777-0.246s-1.172-0.082-1.93-0.082c-1.715,0-3.316,0.467-4.803,1.396-1.488,0.932-2.789,2.15-3.896,3.658-1.109,1.508-1.98,3.246-2.609,5.217-0.633,1.973-0.947,4.027-0.947,6.164,0,2.631,0.404,4.713,1.211,6.246s2.295,2.301,4.465,2.301c1.158,0,2.203-0.246,3.139-0.738,0.932-0.494,1.93-1.316,2.988-2.467,0.102-1.367,0.264-2.807,0.49-4.314,0.229-1.506,0.467-2.889,0.721-4.15l2.948-12.985z"/><path d="m1782.3,1279h-0.871c-1.615,5.807-3.342,11.121-5.182,15.941-1.842,4.822-3.971,9.205-6.393,13.148-0.303-1.971-0.58-4.189-0.832-6.656-0.254-2.465-0.48-4.998-0.68-7.602-0.061-0.752-0.1-1.494-0.154-2.244-0.133-1.844-0.268-3.689-0.377-5.521-0.15-2.574-0.254-4.93-0.301-7.066h-11.576c0.404,8.547,1.146,16.217,2.232,23.01,1.055,6.607,2.217,12.58,3.488,17.943-0.15,0.486-0.299,0.975-0.461,1.457-0.434,1.299-6.732,13.471-8.043,14.785l3.613,0.561,6.447,1.002c2.42-1.973,14.889-24.49,16.553-27.449,1.664-2.957,3.277-6.066,4.842-9.326,1.562-3.26,3.064-6.697,4.502-10.314,1.436-3.615,2.859-7.506,4.273-11.668h-11.08z"/></g><g transform="translate(-506.40581,78.509761)"><path d="m1548.9,1262.2h-11.289l-3.684,16.756c-0.807-0.219-1.602-0.383-2.383-0.494-0.783-0.109-1.627-0.164-2.533-0.164-3.531,0-6.785,0.713-9.76,2.137-2.977,1.426-5.547,3.369-7.717,5.834-2.168,2.467-3.869,5.355-5.105,8.67-1.236,3.316-1.854,6.836-1.854,10.561,0,2.465,0.266,4.781,0.795,6.943,0.529,2.166,1.361,4.057,2.496,5.672s2.598,2.889,4.387,3.82c1.791,0.932,3.947,1.396,6.469,1.396,2.119,0,4.047-0.41,5.787-1.232,1.74-0.82,3.314-1.861,4.729-3.121,0.252,0.766,0.504,1.451,0.756,2.053,0.252,0.604,0.529,1.232,0.834,1.891l10.059-1.561c-0.857-2.467-1.438-5.273-1.738-8.424-0.303-3.15-0.102-6.287,0.605-9.41l9.146-41.327zm-19.965,39.19c-0.254,1.262-0.492,2.645-0.719,4.15-0.227,1.508-0.393,2.947-0.492,4.314-1.059,1.15-2.068,1.973-3.025,2.467-0.959,0.492-2.018,0.738-3.178,0.738-2.17,0-3.668-0.752-4.5-2.26-0.834-1.506-1.25-3.574-1.25-6.205,0-2.025,0.305-4.012,0.908-5.957,0.605-1.945,1.449-3.684,2.535-5.219,1.084-1.533,2.383-2.754,3.896-3.658,1.512-0.902,3.15-1.355,4.916-1.355h1.363c0.352,0,0.641,0.014,0.869,0.041,0.227,0.029,0.453,0.07,0.68,0.125,0.229,0.055,0.492,0.109,0.795,0.164l-2.798,12.655z"/></g></g></g><g transform="translate(-1386.0988,-519.71963)"><path fill="url(#linearGradient5121)" d="m1422.2,971.1c1.158,0,2.318-0.095,3.48-0.288,1.158-0.191,2.191-0.534,3.1-1.027s1.652-1.191,2.232-2.096c0.578-0.903,0.871-2.066,0.871-3.492,0-1.096-0.279-2.041-0.834-2.836-0.557-0.793-1.262-1.52-2.117-2.177-0.859-0.658-1.816-1.26-2.875-1.809-1.061-0.547-2.119-1.15-3.178-1.808-1.363-0.876-2.648-1.809-3.857-2.794-1.211-0.986-2.244-2.095-3.104-3.328-0.857-1.233-1.537-2.602-2.041-4.109-0.506-1.507-0.756-3.246-0.756-5.218,0-2.52,0.441-4.861,1.322-7.027,0.883-2.163,2.195-4.039,3.934-5.629,1.74-1.588,3.922-2.835,6.545-3.738,2.621-0.904,5.699-1.355,9.229-1.355,1.613,0,3.178,0.15,4.691,0.451s2.922,0.672,4.234,1.109c1.311,0.439,2.51,0.945,3.594,1.521s2.006,1.138,2.76,1.685l-4.916,9.45c-1.26-1.04-2.797-1.918-4.613-2.63-1.816-0.711-3.783-1.068-5.9-1.068-1.162,0-2.27,0.111-3.33,0.329-1.059,0.22-1.992,0.59-2.799,1.109-0.807,0.521-1.449,1.191-1.928,2.014-0.48,0.821-0.719,1.837-0.719,3.04,0,1.098,0.188,2.014,0.566,2.754,0.379,0.738,0.871,1.384,1.475,1.931,0.605,0.548,1.312,1.042,2.119,1.479s1.664,0.904,2.572,1.396c1.562,0.877,3.076,1.809,4.539,2.794,1.461,0.986,2.746,2.124,3.859,3.41,1.107,1.289,1.99,2.753,2.646,4.397,0.654,1.644,0.982,3.588,0.982,5.834,0,3.123-0.529,5.835-1.588,8.136s-2.547,4.22-4.463,5.753c-1.918,1.534-4.199,2.671-6.848,3.41-2.646,0.739-5.584,1.109-8.812,1.109-2.117,0-4.098-0.192-5.939-0.575-1.84-0.384-3.504-0.835-4.99-1.355-1.49-0.521-2.775-1.082-3.859-1.685-1.086-0.603-1.955-1.15-2.609-1.644l4.992-9.78c0.605,0.439,1.336,0.904,2.193,1.397s1.828,0.959,2.912,1.397,2.232,0.809,3.443,1.109c1.211,0.303,2.473,0.454,3.785,0.454z"/><path fill="url(#linearGradient5123)" d="m1463.4,981.78c-2.674,0-4.994-0.438-6.959-1.314-1.967-0.876-3.594-2.109-4.881-3.699-1.285-1.587-2.258-3.463-2.91-5.629-0.656-2.163-0.986-4.561-0.986-7.189,0-3.288,0.494-6.575,1.477-9.861,0.982-3.288,2.434-6.246,4.35-8.876s4.262-4.778,7.035-6.452c2.773-1.67,5.951-2.506,9.533-2.506,2.619,0,4.928,0.439,6.92,1.315,1.992,0.877,3.631,2.109,4.918,3.698,1.285,1.59,2.256,3.465,2.912,5.629,0.654,2.166,0.982,4.561,0.982,7.191,0,3.286-0.479,6.573-1.438,9.861-0.957,3.287-2.371,6.246-4.236,8.875-1.865,2.63-4.197,4.78-6.996,6.451-2.799,1.67-6.04,2.506-9.721,2.506zm5.597-35.172c-1.664,0-3.127,0.521-4.387,1.561-1.264,1.042-2.322,2.356-3.178,3.945-0.857,1.59-1.502,3.328-1.928,5.218-0.432,1.891-0.645,3.686-0.645,5.384,0,2.793,0.402,4.944,1.211,6.45,0.807,1.507,2.27,2.26,4.389,2.26,1.662,0,3.125-0.521,4.385-1.562,1.262-1.04,2.32-2.354,3.18-3.944,0.855-1.589,1.5-3.329,1.928-5.219s0.643-3.684,0.643-5.382c0-2.795-0.402-4.943-1.209-6.451-0.809-1.507-2.272-2.26-4.389-2.26z"/><path fill="url(#linearGradient5125)" d="m1525.5,926.64,11.727-1.971-2.875,12.737h14.18l-2.27,10.024h-14.104l-3.328,15.122c-0.303,1.261-0.492,2.438-0.568,3.534s0.049,2.041,0.379,2.835c0.328,0.794,0.895,1.41,1.703,1.849,0.805,0.438,1.914,0.657,3.328,0.657,1.209,0,2.383-0.123,3.516-0.37,1.137-0.246,2.281-0.588,3.443-1.027l0.832,9.369c-1.514,0.604-3.152,1.123-4.916,1.561-1.768,0.438-3.859,0.658-6.279,0.658-3.48,0-6.18-0.562-8.096-1.685s-3.277-2.657-4.084-4.603c-0.807-1.943-1.16-4.176-1.059-6.697,0.1-2.52,0.453-5.178,1.059-7.972l7.412-34.021z"/><path fill="url(#linearGradient5127)" d="m1571.6,955.32c-0.961,2.247-2.031,4.533-3.215,6.861-1.186,2.33-2.398,4.603-3.633,6.821-1.236,2.219-2.434,4.328-3.592,6.327-1.162,2.001-2.193,3.768-3.102,5.301h-8.777c-0.402-2.301-0.818-5.039-1.246-8.217-0.43-3.178-0.846-6.643-1.25-10.396-0.404-3.752-0.77-7.726-1.096-11.916-0.33-4.191-0.566-8.424-0.719-12.696h11.045c0,1.972,0.012,4.108,0.037,6.409,0.025,2.302,0.076,4.685,0.15,7.15,0.076,2.466,0.189,4.984,0.342,7.56,0.15,2.576,0.352,5.124,0.604,7.644,1.262-2.301,2.51-4.697,3.746-7.191,1.234-2.492,2.42-4.984,3.555-7.479,1.135-2.492,2.193-4.943,3.178-7.354,0.982-2.41,1.852-4.656,2.611-6.738h9.379c0,3.944,0.062,8.354,0.189,13.23,0.125,4.877,0.441,10.054,0.945,15.532,1.363-2.466,2.621-5,3.783-7.602,1.16-2.602,2.23-5.164,3.215-7.685,0.982-2.519,1.865-4.93,2.646-7.231,0.783-2.301,1.475-4.383,2.08-6.245h11.955c-1.01,2.739-2.207,5.821-3.594,9.245s-2.988,7.025-4.803,10.807c-1.816,3.779-3.861,7.643-6.129,11.587-2.27,3.944-4.793,7.807-7.566,11.587h-8.773c-0.607-4.491-1.061-8.793-1.361-12.902-0.304-4.109-0.505-8.245-0.604-12.409z"/><path fill="url(#linearGradient5129)" d="m1634.9,961.98c-0.707,3.123-0.908,6.26-0.605,9.409,0.303,3.151,0.881,5.958,1.74,8.423l-10.061,1.562c-0.303-0.657-0.582-1.286-0.832-1.89-0.254-0.603-0.506-1.287-0.758-2.055-1.412,1.261-2.977,2.301-4.689,3.123-1.715,0.821-3.631,1.232-5.75,1.232-2.521,0-4.678-0.48-6.467-1.438-1.791-0.958-3.254-2.246-4.389-3.862s-1.955-3.507-2.459-5.671-0.756-4.479-0.756-6.943c0-3.781,0.617-7.342,1.854-10.684s2.951-6.259,5.145-8.752c2.193-2.492,4.777-4.451,7.754-5.876,2.975-1.425,6.203-2.137,9.682-2.137,0.453,0,1.25,0.028,2.383,0.082,1.135,0.056,2.434,0.179,3.896,0.37,1.463,0.192,3.002,0.507,4.613,0.944,1.615,0.439,3.152,1.042,4.617,1.81l-4.918,22.353zm-7.867-15.122c-0.656-0.109-1.25-0.191-1.777-0.246-0.531-0.055-1.172-0.082-1.93-0.082-1.715,0-3.316,0.466-4.803,1.396-1.49,0.932-2.789,2.15-3.896,3.657-1.109,1.508-1.98,3.245-2.611,5.218s-0.945,4.027-0.945,6.163c0,2.63,0.404,4.713,1.211,6.246,0.807,1.534,2.293,2.301,4.463,2.301,1.16,0,2.205-0.245,3.141-0.739,0.932-0.493,1.93-1.314,2.986-2.466,0.102-1.368,0.266-2.808,0.492-4.314,0.229-1.505,0.467-2.889,0.721-4.149l2.948-12.985z"/><path fill="url(#linearGradient5131)" d="m1669,947.93c-1.012-0.273-2.006-0.534-2.988-0.78-0.984-0.247-2.436-0.37-4.352-0.37-0.707,0-1.486,0.069-2.344,0.205-0.857,0.138-1.562,0.288-2.119,0.451l-7.336,33.201h-11.271l9.078-40.925c2.166-0.767,4.6-1.492,7.299-2.178,2.695-0.685,5.734-1.027,9.115-1.027,1.26,0,2.658,0.124,4.199,0.37,1.537,0.246,2.887,0.645,4.045,1.191l-3.326,9.862z"/><path fill="url(#linearGradient5133)" d="m1668.5,963.7c0-3.505,0.566-6.903,1.701-10.19s2.734-6.205,4.803-8.752,4.578-4.602,7.527-6.163c2.951-1.562,6.215-2.343,9.799-2.343,1.762,0,3.402,0.275,4.916,0.822,1.512,0.549,2.836,1.343,3.971,2.383,1.135,1.041,2.016,2.316,2.646,3.822,0.631,1.507,0.947,3.219,0.947,5.136,0,3.069-0.633,5.671-1.893,7.807s-3.014,3.876-5.256,5.218c-2.244,1.344-4.906,2.316-7.982,2.918-3.076,0.604-6.428,0.904-10.061,0.904,0.354,2.301,1.123,3.932,2.307,4.89,1.186,0.959,3.064,1.438,5.637,1.438,1.613,0,3.254-0.149,4.916-0.452,1.666-0.3,3.227-0.752,4.689-1.355l0.834,9.615c-1.414,0.604-3.215,1.15-5.41,1.644-2.191,0.493-4.574,0.739-7.148,0.739-3.127,0-5.762-0.48-7.904-1.438-2.145-0.958-3.885-2.26-5.219-3.903-1.338-1.644-2.309-3.562-2.914-5.753s-0.906-4.521-0.906-6.987zm22.011-17.75c-2.57,0-4.828,1-6.77,2.999-1.943,2-3.215,4.643-3.82,7.931,3.127-0.109,5.648-0.397,7.564-0.863,1.916-0.465,3.406-1.027,4.463-1.685,1.059-0.658,1.766-1.369,2.119-2.137,0.352-0.767,0.529-1.533,0.529-2.301,0.001-2.629-1.36-3.944-4.085-3.944z"/><g transform="translate(82.446824,399.43798)"><polygon points="1421.7,547.99,1421.7,547.99,1421.5,548.78" fill="url(#linearGradient5135)"/><polygon points="1437.2,537.97,1427.3,537.97,1425.1,547.99,1434.9,547.99" fill="url(#linearGradient5137)"/><path fill="url(#linearGradient5139)" d="m1439.7,518.2c-1.691-0.52-3.67-0.78-5.939-0.78-5.951,0-10.566,1.59-13.844,4.766-3.279,3.179-5.549,7.671-6.809,13.478l-7.865,35.83c-0.406,1.919-0.922,3.986-1.553,6.205-0.447,1.571-0.979,3.113-1.551,4.643h11.324c1.285-3.688,2.506-8.141,3.656-13.395l4.387-19.93,0.055-0.244,0.172-0.783,2.215-10.024h-0.023l0.453-2.138c0.504-2.301,1.426-4.217,2.762-5.752,1.334-1.533,3.393-2.301,6.164-2.301,1.01,0,2.105,0.123,3.291,0.37,1.186,0.246,2.232,0.616,3.141,1.109l3.781-9.615c-0.858-0.439-2.13-0.918-3.819-1.439z"/></g><g transform="translate(82.446824,399.43798)"><path fill="url(#linearGradient5141)" d="m1363.6,651.66,12.557-56.949h33.967l-2.42,10.602h-22.3l-2.648,12.162h19.594l-2.344,10.601h-19.594l-5.221,23.585h-11.724z"/><path fill="url(#linearGradient5143)" d="m1432.3,618.96c-1.01-0.273-2.004-0.533-2.988-0.779-0.984-0.248-2.434-0.371-4.35-0.371-0.707,0-1.488,0.07-2.346,0.205-0.857,0.139-1.562,0.289-2.119,0.452l-7.336,33.2h-11.271l9.078-40.924c2.168-0.767,4.6-1.492,7.299-2.178,2.697-0.686,5.736-1.027,9.115-1.027,1.26,0,2.66,0.123,4.199,0.369,1.537,0.246,2.887,0.645,4.047,1.191l-3.328,9.862z"/><path fill="url(#linearGradient5145)" d="m1431.8,634.74c0-3.506,0.566-6.904,1.701-10.191s2.734-6.204,4.805-8.752c2.066-2.547,4.576-4.602,7.525-6.162,2.951-1.562,6.215-2.343,9.799-2.343,1.764,0,3.402,0.274,4.916,0.821,1.514,0.549,2.838,1.344,3.975,2.384,1.133,1.041,2.014,2.315,2.646,3.821,0.629,1.508,0.945,3.219,0.945,5.137,0,3.068-0.631,5.67-1.893,7.807-1.26,2.136-3.014,3.876-5.258,5.218-2.244,1.343-4.904,2.315-7.98,2.918-3.078,0.603-6.432,0.903-10.062,0.903,0.354,2.301,1.123,3.932,2.309,4.891,1.184,0.959,3.062,1.438,5.635,1.438,1.615,0,3.254-0.15,4.916-0.452,1.666-0.3,3.229-0.752,4.691-1.356l0.832,9.615c-1.412,0.604-3.215,1.15-5.408,1.645-2.193,0.492-4.576,0.738-7.148,0.738-3.127,0-5.762-0.48-7.906-1.438s-3.883-2.26-5.219-3.902c-1.338-1.645-2.307-3.562-2.912-5.753-0.608-2.193-0.909-4.522-0.909-6.987zm22.012-17.75c-2.57,0-4.83,1-6.768,2.998-1.943,2.001-3.215,4.644-3.822,7.932,3.127-0.109,5.648-0.398,7.566-0.863,1.914-0.465,3.404-1.027,4.461-1.686,1.061-0.657,1.766-1.369,2.119-2.137,0.352-0.766,0.529-1.533,0.529-2.301,0.001-2.629-1.358-3.943-4.085-3.943z"/><path fill="url(#linearGradient5147)" d="m1468.2,634.74c0-3.506,0.566-6.904,1.701-10.191s2.734-6.204,4.803-8.752c2.068-2.547,4.58-4.602,7.527-6.162,2.951-1.562,6.217-2.343,9.799-2.343,1.764,0,3.402,0.274,4.916,0.821,1.514,0.549,2.836,1.344,3.973,2.384,1.133,1.041,2.014,2.315,2.646,3.821,0.629,1.508,0.945,3.219,0.945,5.137,0,3.068-0.631,5.67-1.893,7.807-1.26,2.136-3.012,3.876-5.256,5.218-2.244,1.343-4.904,2.315-7.98,2.918-3.078,0.603-6.43,0.903-10.062,0.903,0.354,2.301,1.123,3.932,2.309,4.891,1.184,0.959,3.062,1.438,5.635,1.438,1.613,0,3.254-0.15,4.918-0.452,1.664-0.3,3.227-0.752,4.689-1.356l0.832,9.615c-1.412,0.604-3.215,1.15-5.408,1.645-2.193,0.492-4.576,0.738-7.148,0.738-3.127,0-5.762-0.48-7.904-1.438-2.146-0.957-3.885-2.26-5.221-3.902-1.338-1.645-2.309-3.562-2.914-5.753s-0.907-4.522-0.907-6.987zm22.013-17.75c-2.572,0-4.83,1-6.771,2.998-1.941,2.001-3.215,4.644-3.82,7.932,3.127-0.109,5.648-0.398,7.566-0.863,1.914-0.465,3.404-1.027,4.461-1.686,1.061-0.657,1.766-1.369,2.119-2.137,0.352-0.766,0.531-1.533,0.531-2.301,0-2.629-1.363-3.943-4.086-3.943z"/><path fill="url(#linearGradient5149)" d="m1561.3,652.81c-2.676,0-4.994-0.438-6.961-1.314-1.967-0.875-3.594-2.108-4.879-3.698-1.287-1.587-2.26-3.464-2.912-5.629-0.656-2.163-0.984-4.562-0.984-7.19,0-3.287,0.492-6.574,1.475-9.861,0.984-3.287,2.434-6.246,4.352-8.875,1.914-2.63,4.26-4.779,7.035-6.452,2.771-1.67,5.949-2.506,9.531-2.506,2.621,0,4.928,0.438,6.922,1.315,1.99,0.877,3.629,2.109,4.918,3.697,1.285,1.59,2.254,3.466,2.91,5.629,0.654,2.166,0.984,4.561,0.984,7.191,0,3.287-0.48,6.574-1.438,9.861-0.959,3.287-2.371,6.246-4.236,8.875-1.865,2.631-4.199,4.781-6.998,6.451s-6.039,2.506-9.719,2.506zm5.598-35.172c-1.666,0-3.129,0.521-4.389,1.562-1.262,1.042-2.32,2.356-3.178,3.944-0.857,1.59-1.5,3.328-1.928,5.219-0.43,1.891-0.645,3.686-0.645,5.383,0,2.794,0.404,4.945,1.211,6.451,0.807,1.507,2.27,2.26,4.389,2.26,1.664,0,3.125-0.521,4.387-1.562,1.26-1.039,2.318-2.354,3.178-3.943,0.855-1.589,1.5-3.329,1.928-5.219,0.428-1.891,0.643-3.684,0.643-5.383,0-2.795-0.402-4.943-1.209-6.451-0.807-1.507-2.272-2.261-4.387-2.261z"/><path fill="url(#linearGradient5152)" d="m1592.3,610.41c0.857-0.273,1.777-0.588,2.762-0.945,0.984-0.355,2.092-0.684,3.328-0.984,1.234-0.301,2.621-0.547,4.16-0.74,1.539-0.191,3.314-0.287,5.334-0.287,2.42,0,4.426,0.328,6.014,0.986,1.588,0.656,3.037,1.643,4.35,2.957,1.865-1.15,3.719-2.096,5.561-2.834,1.84-0.74,3.996-1.109,6.467-1.109,2.371,0,4.4,0.342,6.09,1.027s3.09,1.67,4.199,2.957c1.109,1.289,1.916,2.822,2.42,4.603s0.758,3.739,0.758,5.876c0,0.986-0.064,2.027-0.189,3.123-0.127,1.096-0.316,2.191-0.568,3.287l-5.145,23.338h-11.271l4.994-22.846c0.15-0.766,0.314-1.629,0.49-2.588,0.178-0.957,0.266-1.903,0.266-2.836,0-1.531-0.328-2.861-0.982-3.984-0.656-1.123-1.943-1.686-3.859-1.686-1.059,0-2.068,0.205-3.025,0.616-0.959,0.411-1.816,0.837-2.572,1.273,0.102,0.44,0.152,0.851,0.152,1.233v1.068c0,0.986-0.064,2.027-0.189,3.123-0.127,1.096-0.316,2.191-0.568,3.287l-5.143,23.338h-11.271l4.992-22.846c0.152-0.766,0.314-1.629,0.49-2.588,0.178-0.957,0.268-1.903,0.268-2.836,0-1.531-0.33-2.861-0.984-3.984-0.656-1.123-1.943-1.686-3.859-1.686-0.807,0-1.486,0.041-2.043,0.123-0.555,0.082-1.209,0.206-1.967,0.371l-7.336,33.445h-11.271l9.147-41.252z"/><path fill="url(#linearGradient5154)" d="m1711.7,616.9c0,5.535-0.832,10.492-2.496,14.875s-4.047,8.095-7.148,11.135c-3.102,3.041-6.873,5.383-11.309,7.027-4.439,1.643-9.457,2.465-15.055,2.465-2.119,0-4.564-0.137-7.338-0.411-2.775-0.274-5.447-0.712-8.02-1.315l12.18-54.977c2.875-0.603,5.635-1.027,8.283-1.273,2.648-0.247,5.031-0.37,7.15-0.37,3.73,0,7.072,0.548,10.021,1.644,2.951,1.096,5.447,2.658,7.49,4.684,2.041,2.027,3.594,4.438,4.652,7.232,1.06,2.792,1.59,5.888,1.59,9.284zm-37.596,24.49c0.553,0.055,1.121,0.096,1.699,0.123,0.58,0.028,1.375,0.041,2.385,0.041,3.277,0,6.24-0.547,8.887-1.645,2.65-1.094,4.893-2.67,6.734-4.725,1.842-2.054,3.266-4.574,4.273-7.561s1.514-6.34,1.514-10.066c0-1.918-0.229-3.658-0.682-5.219s-1.197-2.902-2.23-4.027c-1.033-1.121-2.371-1.984-4.01-2.588s-3.619-0.904-5.939-0.904c-1.512,0-3.051,0.083-4.613,0.247l-8.018,36.324z"/><path fill="url(#linearGradient5156)" d="m1748.2,633.01c-0.707,3.123-0.906,6.26-0.605,9.41,0.305,3.15,0.883,5.957,1.742,8.423l-10.062,1.562c-0.303-0.658-0.58-1.287-0.832-1.891-0.254-0.602-0.506-1.287-0.758-2.054-1.41,1.261-2.977,2.301-4.689,3.122-1.715,0.822-3.631,1.232-5.75,1.232-2.521,0-4.676-0.48-6.467-1.438s-3.252-2.246-4.389-3.861c-1.133-1.617-1.955-3.507-2.459-5.672-0.502-2.163-0.754-4.479-0.754-6.943,0-3.781,0.617-7.342,1.852-10.684,1.236-3.342,2.951-6.258,5.145-8.752,2.195-2.492,4.777-4.45,7.754-5.875s6.205-2.137,9.684-2.137c0.453,0,1.248,0.028,2.383,0.082,1.135,0.055,2.432,0.178,3.895,0.369,1.463,0.193,3.002,0.508,4.615,0.945,1.613,0.439,3.15,1.041,4.615,1.809l-4.92,22.353zm-7.867-15.121c-0.656-0.109-1.248-0.191-1.777-0.246s-1.172-0.082-1.93-0.082c-1.715,0-3.316,0.467-4.803,1.396-1.488,0.932-2.789,2.15-3.896,3.658-1.109,1.508-1.98,3.245-2.609,5.217-0.633,1.973-0.947,4.027-0.947,6.164,0,2.63,0.404,4.713,1.211,6.246s2.295,2.301,4.465,2.301c1.158,0,2.203-0.246,3.139-0.739,0.932-0.493,1.93-1.315,2.988-2.466,0.102-1.368,0.264-2.808,0.49-4.314,0.229-1.506,0.467-2.889,0.721-4.15l2.948-12.985z"/><path fill="url(#linearGradient5158)" d="m1782.3,608.44h-0.871c-1.615,5.807-3.342,11.121-5.182,15.941-1.842,4.822-3.971,9.205-6.393,13.148-0.303-1.972-0.58-4.19-0.832-6.656-0.254-2.465-0.48-4.998-0.68-7.602-0.061-0.752-0.1-1.494-0.154-2.244-0.133-1.845-0.268-3.69-0.377-5.521-0.15-2.574-0.254-4.931-0.301-7.066h-11.576c0.404,8.547,1.146,16.217,2.232,23.01,1.055,6.607,2.217,12.58,3.488,17.942-0.15,0.487-0.299,0.976-0.461,1.458-0.434,1.299-6.732,13.471-8.043,14.785l3.613,0.561,6.447,1.001c2.42-1.972,14.889-24.489,16.553-27.448,1.664-2.958,3.277-6.066,4.842-9.326,1.562-3.26,3.064-6.697,4.502-10.314,1.436-3.615,2.859-7.506,4.273-11.668h-11.08z"/></g><g transform="translate(82.446824,399.43798)"><path fill="none" d="m1530.3,617.93c-0.229-0.027-0.518-0.041-0.869-0.041h-1.363c-1.766,0-3.404,0.452-4.916,1.355-1.514,0.904-2.812,2.125-3.896,3.658-1.086,1.534-1.93,3.273-2.535,5.219-0.604,1.945-0.908,3.932-0.908,5.957,0,2.63,0.416,4.699,1.25,6.204,0.832,1.509,2.33,2.261,4.5,2.261,1.16,0,2.219-0.246,3.178-0.739,0.957-0.493,1.967-1.315,3.025-2.466,0.1-1.368,0.266-2.808,0.492-4.314,0.227-1.506,0.465-2.889,0.719-4.15l2.799-12.654c-0.303-0.055-0.566-0.109-0.795-0.165-0.228-0.054-0.454-0.096-0.681-0.125z"/><path fill="url(#linearGradient5160)" d="m1548.9,591.68h-11.289l-3.684,16.756c-0.807-0.219-1.602-0.383-2.383-0.494-0.783-0.109-1.627-0.164-2.533-0.164-3.531,0-6.785,0.713-9.76,2.137-2.977,1.426-5.547,3.369-7.717,5.834-2.168,2.467-3.869,5.355-5.105,8.67-1.236,3.316-1.854,6.836-1.854,10.561,0,2.465,0.266,4.78,0.795,6.943,0.529,2.166,1.361,4.057,2.496,5.671,1.135,1.616,2.598,2.89,4.387,3.821,1.791,0.932,3.947,1.396,6.469,1.396,2.119,0,4.047-0.41,5.787-1.232,1.74-0.821,3.314-1.861,4.729-3.122,0.252,0.767,0.504,1.452,0.756,2.054,0.252,0.604,0.529,1.232,0.834,1.891l10.059-1.562c-0.857-2.466-1.438-5.272-1.738-8.423-0.303-3.15-0.102-6.287,0.605-9.41l9.146-41.327zm-19.965,39.19c-0.254,1.262-0.492,2.645-0.719,4.15-0.227,1.507-0.393,2.946-0.492,4.314-1.059,1.15-2.068,1.973-3.025,2.466-0.959,0.493-2.018,0.739-3.178,0.739-2.17,0-3.668-0.752-4.5-2.261-0.834-1.505-1.25-3.574-1.25-6.204,0-2.025,0.305-4.012,0.908-5.957,0.605-1.945,1.449-3.685,2.535-5.219,1.084-1.533,2.383-2.754,3.896-3.658,1.512-0.903,3.15-1.355,4.916-1.355h1.363c0.352,0,0.641,0.014,0.869,0.041,0.227,0.029,0.453,0.07,0.68,0.124,0.229,0.056,0.492,0.11,0.795,0.165l-2.798,12.655z"/></g></g><g transform="matrix(2.2012103,0,0,2.2012103,-2610.899,-1939.8661)"><g transform="translate(82.446824,399.43798)"><path fill="url(#linearGradient4487)" d="m1164.1,538.51s7.496,9.435,5.707-0.229c-1.791-9.665-16.127-28.551-23.35-23.98-7.227,4.57-3.574,8.335,0.963,10.764,4.541,2.428,13.486,8.582,16.68,13.445z"/><path fill="url(#linearGradient4489)" d="m1202.2,523.85s-1.49,12.77,4.471,4.14c5.955-8.629,9.438-33.689,0.545-35.706-8.895-2.019-8.99,3.573-7.408,8.831,1.583,5.257,3.665,16.658,2.392,22.735z"/><path fill="url(#linearGradient4491)" d="m1244.3,528.28s-9.543,11.699,1.805,6.922c11.348-4.782,30.627-27.39,23.094-35.007-7.531-7.614-11.16-2.137-12.91,4.068-1.756,6.207-6.895,18.804-11.989,24.017z"/><path fill="url(#linearGradient4493)" d="m1274.8,558.62s-14.912,4.14-2.586,6.859c12.326,2.715,41.84-4.787,40.049-15.621-1.789-10.833-8.07-8.397-13.213-4.241-5.143,4.154-16.9,11.656-24.25,13.003z"/><path fill="url(#linearGradient4495)" d="m1140.1,567.28s9.912,3.295,4.027-2.868c-5.883-6.168-25.25-13.072-28.322-6.325-3.074,6.745,1.359,7.741,5.809,7.349,4.443-0.392,13.859-0.167,18.486,1.844z"/><path fill="url(#linearGradient4497)" d="m1133.1,599.11s8.361-0.392,2.186-3.31c-6.18-2.914-22.656-2.503-23.012,3.43-0.355,5.931,3.252,5.398,6.463,3.826,3.21-1.576,10.318-4.12,14.363-3.946z"/><path fill="url(#linearGradient4499)" d="m1140.4,627.19s4.957-4.282-0.254-3.095c-5.207,1.188-15.152,9.398-12.506,13.225,2.639,3.823,4.607,1.756,5.824-0.764,1.219-2.522,4.361-7.519,6.936-9.366z"/></g><path fill="none" d="m1259.7,985.76c7.564-18.068,28.518-26.512,46.803-18.855,4.268,1.783,8.002,4.299,11.141,7.319-3.705-4.114-8.361-7.501-13.818-9.788-19.541-8.181-41.934,0.844-50.018,20.154-5.746,13.727-2.711,28.95,6.541,39.548,0.914-1.621,1.855-3.221,2.83-4.795-6.54-9.613-8.265-22.153-3.479-33.583z"/><g transform="translate(82.446824,399.43798)"><path fill="none" d="m1177.2,586.32c7.564-18.068,28.518-26.512,46.803-18.855,4.268,1.783,8.002,4.299,11.141,7.319-3.705-4.114-8.361-7.501-13.818-9.788-19.541-8.181-41.934,0.844-50.018,20.154-4.324,10.329-4.571,23.144-0.488,33.371,2.1-1.572,4.279-3.146,6.535-4.711-3.636-8.497-3.983-18.347-0.155-27.49z"/><path fill="none" d="m1210.5,571.88c-16.432,0-29.799,13.367-29.799,29.799,0,3.122,0.492,6.129,1.39,8.958,15.12-9.9,33.333-19.042,53.989-24.255-0.01-0.001-0.015-0.001-0.021-0.002-5.215-8.678-14.719-14.5-25.559-14.5z"/><path fill="none" d="m1269.7,591.44c0.391,2.278,0.67,4.595,0.797,6.952-6.412,0.486-9.91-0.642-9.91-0.642-2.826-3.178-6.027-5.487-9.271-7.167-2.14,0.225-4.306,0.552-6.483,0.988-28.584,5.723-52.715,19.595-70.668,33.189,0.666,0.987,1.367,1.946,2.143,2.835-3.617,6.421-5.184,10.253-7.91,16.874-2.753-2.711-5.245-5.686-7.438-8.881-7.471,6.619-13.18,12.559-16.867,16.652h182.91c-5.583-15.413-22.7-53.537-57.301-60.8z"/><path fill="url(#linearGradient4501)" d="m1176.3,627.6c-0.775-0.889-1.477-1.848-2.143-2.835-4.87,3.687-9.279,7.35-13.205,10.828,2.192,3.195,4.685,6.17,7.438,8.881,2.727-6.621,4.293-10.453,7.91-16.874z"/><path fill="url(#linearGradient4503)" d="m1171.4,585.15c8.084-19.311,30.477-28.335,50.018-20.154,5.457,2.287,10.113,5.674,13.818,9.788-3.139-3.021-6.873-5.536-11.141-7.319-18.285-7.656-39.238,0.787-46.803,18.855-3.828,9.144-3.48,18.993,0.154,27.49,1.537-1.065,3.108-2.126,4.716-3.179-0.897-2.829-1.39-5.836-1.39-8.958,0-16.432,13.367-29.799,29.799-29.799,10.84,0,20.344,5.821,25.559,14.5,0.01,0.001,0.015,0.001,0.021,0.002,2.418-0.61,4.866-1.173,7.351-1.671,4.903-0.982,9.768-1.479,14.457-1.479,3.478,0,6.815,0.272,10.022,0.77-7.547-24.544-30.395-42.385-57.41-42.385-33.172,0-60.062,26.891-60.062,60.062,0,10.05,2.485,19.511,6.85,27.832,4.051-3.544,8.577-7.258,13.553-10.984-4.083-10.228-3.836-23.042,0.488-33.371z"/><path fill="url(#linearGradient4505)" d="m1260.6,597.75s3.498,1.128,9.91,0.642c-0.127-2.357-0.406-4.674-0.797-6.952-3.725-0.782-7.648-1.211-11.784-1.211-2.16,0-4.366,0.121-6.6,0.354,3.243,1.68,6.444,3.99,9.271,7.167z"/><path fill="url(#linearGradient4507)" d="m1269.7,591.44c-3.725-0.782-7.648-1.211-11.784-1.211-2.16,0-4.366,0.121-6.6,0.354-2.14,0.225-4.306,0.552-6.483,0.988-28.584,5.723-52.715,19.595-70.668,33.189-4.87,3.687-9.279,7.35-13.205,10.828-7.471,6.619-13.18,12.559-16.867,16.652h182.91c-5.583-15.413-22.7-53.537-57.301-60.8z"/></g><g opacity="0.21000001" transform="translate(82.446824,399.43798)"><path fill="url(#linearGradient4509)" d="m1245.2,622.31c56.701-5.558,79.467,26.119,82.741,31.213h-184.25c1.74-1.082,41.272-25.307,101.51-31.213z"/></g></g></svg>
