<!-- Created with Inkscape (http://www.inkscape.org/) -->
<svg xmlns:rdf="http://www.w3.org/1999/02/22-rdf-syntax-ns#" xmlns="http://www.w3.org/2000/svg" version="1.1" xmlns:cc="http://creativecommons.org/ns#" xmlns:dc="http://purl.org/dc/elements/1.1/" viewBox="0 0 377.54 131.98">
 <defs>
  <linearGradient id="SVGID_7_" y2="183.93" gradientUnits="userSpaceOnUse" x2="780.33" y1="183.93" x1="673.68">
   <stop stop-color="#379AD5" offset="0"/>
   <stop stop-color="#0066B2" offset="1"/>
  </linearGradient>
  <linearGradient id="SVGID_8_" y2="206.4" gradientUnits="userSpaceOnUse" x2="749.94" y1="206.4" x1="642.7">
   <stop stop-color="#5B5C5C" offset="0"/>
   <stop stop-color="#333" offset="1"/>
  </linearGradient>
 </defs>
 <metadata>
  <rdf:RDF>
   <cc:Work rdf:about="">
    <dc:format>image/svg+xml</dc:format>
    <dc:type rdf:resource="http://purl.org/dc/dcmitype/StillImage"/>
    <dc:title/>
   </cc:Work>
  </rdf:RDF>
 </metadata>
 <g transform="translate(-11.231587,-563.51681)">
  <g transform="translate(-631.33159,434.01681)">
   <path fill="url(#SVGID_7_)" d="m772.9,169.3c-3.4-2.4-10.9-2.7-6.8-6.8,2-2,6.6-6.6,6-11.8-7.6-7.1-15.5,0-18.6-0.5-5.3-0.9-1-6.3-8.2-9.2-22.6-9.1-65.8-11.5-65.8-11.5,4,8.1,35.5,18.5,43.6,22.5,11.4,5.6,6.6,14.5,0.9,20.1-10.4,10.2-50.2,29.4-50.2,29.4-0.2,0.1-0.1,0.5,0.3,0.4,0,0,47.8-20,49.1-18,1.8,2.5-26.6,34-33.9,40.8-0.2,0.2,0,0.5,0.3,0.4,0,0,36.9-31,46.1-38,9.3-7.1,13-5.8,16.2-4.3,11,5.2,20.1,53,26.7,55.9-0.1-0.2,6.7-60.5-5.7-69.4z"/>
   <path fill="url(#SVGID_8_)" d="m749.3,230.4-4.3-5.7c0.5-1.1,1-2.3,1.4-3.4,0.5-1.4-0.2-3-1.6-3.4l-2.5-0.8c-1.2-0.4-2.5,0.1-3.2,1.2-3.2,5.6-7.7,10.5-13.4,14.2-18.9,12.2-44.3,6.8-56.6-12-12.5-19.2-6.8-44.8,12.5-57,2.3-1.4,4.6-2.6,7.1-3.6,0.8-0.3,1.3-1.2,1.1-2.1l-0.3-1.2c-0.2-0.9-1.1-1.5-2.1-1.3-1.4,0.4-2.9,0.8-4.3,1.3l-5.3-4.8c-1-0.9-2.5-1-3.6-0.3l-10.8,6.8c-1.1,0.7-1.7,2.1-1.3,3.4l2.1,6.9c-2.9,2.9-5.4,6.1-7.4,9.6l-7.2-0.3c-1.4-0.1-2.6,0.8-3,2.1l-3.9,12.2c-0.4,1.3,0.1,2.7,1.2,3.4l6.1,4c-0.3,4-0.2,8,0.5,12l-5.8,4.5c-1.1,0.8-1.5,2.3-0.9,3.5l4.8,11.9c0.5,1.3,1.8,2,3.2,1.9l7.3-0.9c2.4,3.3,5.1,6.3,8,8.9l-1.6,7.1c-0.3,1.3,0.3,2.7,1.5,3.3l11.3,6c1.2,0.6,2.7,0.4,3.6-0.6l5-5.3c3.9,1,7.9,1.6,11.9,1.6l3.4,6.4c0.6,1.2,2,1.8,3.3,1.5l12.5-2.7c1.3-0.3,2.3-1.4,2.4-2.8l0.4-7.2c1.8-0.9,3.6-1.9,5.4-3,1.7-1.1,3.3-2.2,4.8-3.5l6.6,2.7c1.3,0.5,2.7,0.1,3.5-0.9l7.8-10.1c1.2-0.9,1.3-2.4,0.4-3.5z"/>
   <path fill="#0066b2" d="m837.8,199.1-3.5,15.9h-5.8l12.1-53h6.7l11.8,53h-6l-3.5-15.9h-11.8zm10.9-4.8-2.8-13.4c-0.8-3.8-1.5-8.2-2.1-12.1h-0.3c-0.6,4-1.4,8.6-2.1,12.1l-2.7,13.4h10z"/>
   <path fill="#0066b2" d="m864,160.6h6.1v54.4h-6.1v-54.4z"/>
   <path fill="#0066b2" d="m881.2,177,4.8,21.4c0.5,2.6,1.2,6,1.6,9.3h0.2c0.4-3.1,1-6.4,1.6-9.3l4.7-21.4h6l-9.9,38h-5.4l-9.9-38h6.3z"/>
   <path fill="#0066b2" d="m919.7,215-0.4-4h-0.2c-1.6,2.9-4.3,4.6-7.5,4.6-5.1,0-9-4.3-9-10.8,0-9.5,7.6-13.8,16.2-13.8v-1.2c0-5.1-1.3-8.6-6.1-8.6-2.4,0-4.5,0.8-6.3,2l-1.3-4.2c1.6-1.2,5.1-2.5,8.9-2.5,7.6,0,10.9,5,10.9,13.6v16.4c0,2.9,0,6.2,0.4,8.6h-5.6zm-0.8-19.6c-3.1,0-10.5,0.5-10.5,8.8,0,5,2.5,6.8,4.6,6.8,2.7,0,5-2,5.7-5.7,0.2-0.7,0.2-1.5,0.2-2.1v-7.8z"/>
   <path fill="#0066b2" d="M940,166.9v10.1h7.3v4.6h-7.3v22.6c0,5,1.8,6.3,4,6.3,0.9,0,1.7-0.1,2.4-0.2l0.2,4.6c-1.1,0.4-2.5,0.6-4.5,0.6-2.4,0-4.5-0.6-6-2.3s-2.3-4.3-2.3-9.6v-22h-4.6v-4.6h4.6v-8.3l6.2-1.8z"/>
   <path fill="#0066b2" d="m967.7,215-0.4-4h-0.3c-1.6,2.9-4.3,4.6-7.5,4.6-5.1,0-9-4.3-9-10.8,0-9.5,7.6-13.8,16.2-13.8v-1.2c0-5.1-1.3-8.6-6.1-8.6-2.4,0-4.5,0.8-6.3,2l-1.3-4.2c1.6-1.2,5.1-2.5,8.9-2.5,7.6,0,10.9,5,10.9,13.6v16.4c0,2.9,0,6.2,0.4,8.6h-5.5zm-0.9-19.6c-3.1,0-10.5,0.5-10.5,8.8,0,5,2.5,6.8,4.6,6.8,2.7,0,5-2,5.7-5.7,0.2-0.7,0.2-1.5,0.2-2.1v-7.8z"/>
   <path fill="#0066b2" d="m979.5,160.6h6.1v54.4h-6.1v-54.4z"/>
   <path fill="#333" d="m803.9,228.2h-2.4v3.5h2.7v0.9h-3.8v-9.4h3.6v0.9h-2.5v3.1h2.4v1z"/>
   <path fill="#333" d="m805.1,231.5c0.2,0.2,0.7,0.4,1.1,0.4,0.6,0,1-0.4,1-1,0-0.5-0.2-0.9-0.9-1.3-0.9-0.6-1.4-1.1-1.4-1.9,0-1.1,0.8-1.9,1.9-1.9,0.5,0,0.9,0.2,1.2,0.4l-0.3,0.8c-0.3-0.2-0.5-0.3-0.9-0.3-0.6,0-0.9,0.4-0.9,0.9s0.2,0.7,0.8,1.2c0.8,0.5,1.4,1.1,1.4,2.1,0,1.4-0.9,2-2,2-0.5,0-1.1-0.2-1.3-0.4l0.3-1z"/>
   <path fill="#333" d="m810.6,224.1v1.8h1.3v0.8h-1.3v4c0,0.9,0.3,1.1,0.7,1.1h0.4v0.8c-0.2,0.1-0.4,0.1-0.8,0.1s-0.8-0.1-1.1-0.4-0.4-0.8-0.4-1.7v-3.9h-0.8v-0.8h0.8v-1.5l1.2-0.3z"/>
   <path fill="#333" d="m816.8,229.3c0,2.6-1.2,3.5-2.3,3.5-1.2,0-2.2-1.1-2.2-3.5,0-2.5,1.1-3.5,2.3-3.5s2.2,1.1,2.2,3.5zm-3.4,0c0,1.1,0.2,2.6,1.2,2.6,0.9,0,1.1-1.6,1.1-2.6s-0.2-2.6-1.1-2.6c-1-0.1-1.2,1.5-1.2,2.6z"/>
   <path fill="#333" d="m817.9,227.6c0-0.8,0-1.2-0.1-1.8h0.9l0.1,0.8c0.3-0.5,0.8-0.9,1.6-0.9,0.9,0,1.6,0.7,1.6,2.3v4.6h-1v-4.4c0-0.8-0.2-1.6-0.9-1.6-0.4,0-0.9,0.4-1,1.1v0.6,4.3h-1.1v-5z"/>
   <path fill="#333" d="m824.7,224.1c0,0.4-0.3,0.7-0.7,0.7s-0.6-0.3-0.6-0.7,0.3-0.7,0.6-0.7c0.4,0,0.7,0.3,0.7,0.7zm-1.2,8.6v-6.8h1.1v6.8h-1.1z"/>
   <path fill="#333" d="m828.7,232.7-0.1-0.7c-0.3,0.5-0.8,0.8-1.3,0.8-0.9,0-1.6-0.8-1.6-1.9,0-1.7,1.4-2.5,2.9-2.5v-0.2c0-0.9-0.2-1.5-1.1-1.5-0.4,0-0.8,0.1-1.1,0.4l-0.2-0.8c0.3-0.2,0.9-0.4,1.6-0.4,1.4,0,1.9,0.9,1.9,2.4v2.9c0,0.5,0,1.1,0.1,1.5h-1.1zm-0.1-3.5c-0.6,0-1.9,0.1-1.9,1.6,0,0.9,0.4,1.2,0.8,1.2,0.5,0,0.9-0.4,1-1v-0.4-1.4z"/>
   <path fill="#333" d="m831.1,227.6c0-0.8,0-1.2-0.1-1.8h0.9l0.1,0.8c0.3-0.5,0.8-0.9,1.6-0.9,0.9,0,1.6,0.7,1.6,2.3v4.6h-1.1v-4.4c0-0.8-0.2-1.6-0.9-1.6-0.4,0-0.9,0.4-1,1.1v0.6,4.3h-1.1v-5z"/>
   <path fill="#333" d="m838.9,223.2h3.6v0.9h-2.5v3.3h2.4v0.9h-2.4v4.3h-1.1v-9.4z"/>
   <path fill="#333" d="m843.4,227.6c0-0.6,0-1.2-0.1-1.8h1l0.1,1.1c0.2-0.6,0.8-1.2,1.4-1.2h0.2v1.1h-0.2c-0.7,0-1.2,0.6-1.3,1.4v0.6,3.8h-1.1v-5z"/>
   <path fill="#333" d="m847.4,229.4c0,2.1,0.8,2.5,1.6,2.5,0.5,0,0.9-0.1,1.1-0.3l0.2,0.8c-0.4,0.2-1,0.3-1.5,0.3-1.6,0-2.5-1.3-2.5-3.4,0-2.2,0.9-3.6,2.3-3.6s1.9,1.5,1.9,3v0.6h-3.1zm2.1-0.8c0-1.4-0.5-2-1-2-0.7,0-1.1,1-1.1,2h2.1z"/>
   <path fill="#333" d="m852.4,229.4c0,2.1,0.8,2.5,1.6,2.5,0.5,0,0.9-0.1,1.1-0.3l0.2,0.8c-0.4,0.2-1,0.3-1.5,0.3-1.6,0-2.5-1.3-2.5-3.4,0-2.2,0.9-3.6,2.3-3.6s1.9,1.5,1.9,3v0.6h-3.1zm2.1-0.8c0-1.4-0.5-2-1-2-0.7,0-1.1,1-1.1,2h2.1z"/>
   <path fill="#333" d="m861.4,232.7-0.1-0.7c-0.3,0.5-0.8,0.8-1.3,0.8-0.9,0-1.6-0.8-1.6-1.9,0-1.7,1.4-2.5,2.9-2.5v-0.2c0-0.9-0.2-1.5-1.1-1.5-0.4,0-0.8,0.1-1.1,0.4l-0.2-0.8c0.3-0.2,0.9-0.4,1.6-0.4,1.4,0,1.9,0.9,1.9,2.4v2.9c0,0.5,0,1.1,0.1,1.5h-1.1zm-0.1-3.5c-0.6,0-1.9,0.1-1.9,1.6,0,0.9,0.4,1.2,0.8,1.2,0.5,0,0.9-0.4,1-1v-0.4-1.4z"/>
   <path fill="#333" d="m863.8,227.6c0-0.8,0-1.2-0.1-1.8h0.9l0.1,0.8c0.3-0.5,0.8-0.9,1.6-0.9,0.9,0,1.6,0.7,1.6,2.3v4.6h-1.1v-4.4c0-0.8-0.2-1.6-0.9-1.6-0.4,0-0.9,0.4-1,1.1v0.6,4.3h-1.1v-5z"/>
   <path fill="#333" d="m873.5,223v8.1c0,0.5,0,1.2,0.1,1.6h-0.9l-0.1-0.9c-0.2,0.5-0.7,1-1.4,1-1.1,0-2-1.2-2-3.5,0-2.4,1-3.5,2-3.5,0.5,0,1,0.2,1.2,0.8v-3.6h1.1zm-1.1,5.5v-0.4c-0.1-0.7-0.5-1.3-1-1.3-0.9,0-1.2,1.2-1.2,2.6s0.4,2.6,1.1,2.6c0.3,0,0.8-0.2,1-1.2v-0.4-1.9z"/>
   <path fill="#333" d="m882.1,227.9c0,3.5-1.2,4.9-2.7,4.9-1.6,0-2.6-1.7-2.6-4.8s1.1-4.8,2.8-4.8c1.5-0.1,2.5,1.7,2.5,4.7zm-4.3,0c0,1.9,0.4,3.9,1.6,3.9s1.5-2.1,1.5-3.9-0.3-3.9-1.6-3.9c-1.1,0.1-1.5,2-1.5,3.9z"/>
   <path fill="#333" d="m883.3,228c0-1,0-1.6-0.1-2.1h1l0.1,0.9c0.4-0.7,0.9-1,1.4-1,1.2,0,2,1.3,2,3.5,0,2.5-1,3.5-2.1,3.5-0.6,0-1-0.4-1.2-0.8v3.4h-1.1v-7.4zm1.1,2.2v0.6c0.2,1,0.7,1.1,1,1.1,0.9,0,1.2-1.2,1.2-2.6s-0.3-2.6-1.2-2.6c-0.5,0-0.9,0.6-1,1.2v0.5,1.8z"/>
   <path fill="#333" d="m889.6,229.4c0,2.1,0.8,2.5,1.6,2.5,0.5,0,0.9-0.1,1.1-0.3l0.2,0.8c-0.4,0.2-1,0.3-1.5,0.3-1.6,0-2.5-1.3-2.5-3.4,0-2.2,0.9-3.6,2.3-3.6s1.9,1.5,1.9,3v0.6h-3.1zm2.1-0.8c0-1.4-0.5-2-1-2-0.7,0-1.1,1-1.1,2h2.1z"/>
   <path fill="#333" d="m893.8,227.6c0-0.8,0-1.2-0.1-1.8h0.9l0.1,0.8c0.3-0.5,0.8-0.9,1.6-0.9,0.9,0,1.6,0.7,1.6,2.3v4.6h-1.1v-4.4c0-0.8-0.2-1.6-0.9-1.6-0.4,0-0.9,0.4-1,1.1v0.6,4.3h-1.1v-5z"/>
   <path fill="#333" d="m902.1,228.6v0.8h-3.1v-0.8h3.1z"/>
   <path fill="#333" d="m903.1,231.4c0.3,0.2,0.9,0.4,1.4,0.4,1,0,1.6-0.6,1.6-1.6,0-0.9-0.5-1.4-1.2-2-0.7-0.5-1.8-1.4-1.8-2.6,0-1.4,1-2.5,2.5-2.5,0.6,0,1.1,0.2,1.3,0.4l-0.3,0.9c-0.2-0.2-0.6-0.3-1.1-0.3-0.9,0-1.4,0.7-1.4,1.3,0,0.9,0.5,1.3,1.4,1.9,1.1,0.8,1.6,1.7,1.6,2.7,0,1.6-1.1,2.6-2.6,2.6-0.6,0-1.3-0.2-1.6-0.4l0.2-0.8z"/>
   <path fill="#333" d="m912.5,229.3c0,2.6-1.2,3.5-2.3,3.5-1.2,0-2.2-1.1-2.2-3.5,0-2.5,1.1-3.5,2.3-3.5s2.2,1.1,2.2,3.5zm-3.4,0c0,1.1,0.2,2.6,1.2,2.6,0.9,0,1.1-1.6,1.1-2.6s-0.2-2.6-1.1-2.6c-1-0.1-1.2,1.5-1.2,2.6z"/>
   <path fill="#333" d="m917.7,230.8c0,0.8,0,1.3,0.1,1.8h-0.9l-0.1-0.7c-0.2,0.3-0.7,0.8-1.5,0.8-1.2,0-1.7-0.9-1.7-2.6v-4.3h1.1v4.1c0,1.1,0.2,1.8,0.9,1.8,0.6,0,0.9-0.6,1-0.9,0-0.2,0.1-0.4,0.1-0.6v-4.5h1.1v5.1z"/>
   <path fill="#333" d="m919.1,227.6c0-0.6,0-1.2-0.1-1.8h1l0.1,1.1c0.2-0.6,0.8-1.2,1.4-1.2h0.2v1.1h-0.2c-0.7,0-1.2,0.6-1.3,1.4v0.6,3.8h-1.1v-5z"/>
   <path fill="#333" d="m925.6,232.5c-0.2,0.1-0.6,0.3-1.1,0.3-1.5,0-2.5-1.2-2.5-3.4,0-1.9,1-3.5,2.7-3.5,0.4,0,0.8,0.1,1,0.2l-0.2,0.9c-0.1-0.1-0.4-0.2-0.8-0.2-1.1,0-1.6,1.3-1.6,2.6,0,1.6,0.6,2.5,1.6,2.5,0.3,0,0.5-0.1,0.8-0.2l0.1,0.8z"/>
   <path fill="#333" d="m927.2,229.4c0,2.1,0.8,2.5,1.6,2.5,0.5,0,0.9-0.1,1.1-0.3l0.2,0.8c-0.4,0.2-1,0.3-1.5,0.3-1.6,0-2.5-1.3-2.5-3.4,0-2.2,0.9-3.6,2.3-3.6s1.9,1.5,1.9,3v0.6h-3.1zm2.1-0.8c0-1.4-0.5-2-1-2-0.7,0-1.1,1-1.1,2h2.1z"/>
   <path fill="#333" d="m933.4,231.4c0.3,0.2,0.9,0.4,1.4,0.4,1,0,1.6-0.6,1.6-1.6,0-0.9-0.5-1.4-1.2-2-0.7-0.5-1.8-1.4-1.8-2.6,0-1.4,1-2.5,2.5-2.5,0.6,0,1.1,0.2,1.3,0.4l-0.3,0.9c-0.2-0.2-0.6-0.3-1.1-0.3-0.9,0-1.4,0.7-1.4,1.3,0,0.9,0.5,1.3,1.4,1.9,1.1,0.8,1.6,1.7,1.6,2.7,0,1.6-1.1,2.6-2.6,2.6-0.6,0-1.3-0.2-1.6-0.4l0.2-0.8z"/>
   <path fill="#333" d="m942.8,229.3c0,2.6-1.2,3.5-2.3,3.5-1.2,0-2.2-1.1-2.2-3.5,0-2.5,1.1-3.5,2.3-3.5s2.2,1.1,2.2,3.5zm-3.4,0c0,1.1,0.2,2.6,1.2,2.6,0.9,0,1.1-1.6,1.1-2.6s-0.2-2.6-1.1-2.6c-1-0.1-1.2,1.5-1.2,2.6z"/>
   <path fill="#333" d="m944.1,232.7v-6h-0.9v-0.8h0.9v-0.4c0-0.7,0.1-1.5,0.6-2,0.4-0.4,0.9-0.6,1.4-0.6,0.4,0,0.6,0.1,0.8,0.2l-0.2,0.8c-0.1-0.1-0.3-0.1-0.6-0.1-0.8,0-1,0.8-1,1.7v0.4h1.2v0.8h-1.2v6h-1z"/>
   <path fill="#333" d="m948.4,224.1v1.8h1.3v0.8h-1.3v4c0,0.9,0.3,1.1,0.7,1.1h0.4v0.8c-0.2,0.1-0.4,0.1-0.8,0.1s-0.8-0.1-1.1-0.4-0.4-0.8-0.4-1.7v-3.9h-0.8v-0.8h0.8v-1.5l1.2-0.3z"/>
   <path fill="#333" d="m951.3,225.9,0.7,3.3c0.1,0.7,0.3,1.5,0.4,2.2h0.1c0.1-0.7,0.3-1.5,0.4-2.1l0.8-3.3h0.8l0.7,3.3c0.2,0.8,0.3,1.5,0.4,2.2h0.1c0.1-0.7,0.2-1.4,0.4-2.2l0.6-3.3h1.1l-1.7,6.8h-0.9l-0.8-3.3c-0.2-0.7-0.3-1.3-0.4-2-0.1,0.8-0.2,1.4-0.4,2.1l-0.8,3.2h-0.9l-1.7-6.8h1.1z"/>
   <path fill="#333" d="m961.2,232.7-0.1-0.7c-0.3,0.5-0.8,0.8-1.3,0.8-0.9,0-1.6-0.8-1.6-1.9,0-1.7,1.4-2.5,2.9-2.5v-0.2c0-0.9-0.2-1.5-1.1-1.5-0.4,0-0.8,0.1-1.1,0.4l-0.2-0.8c0.3-0.2,0.9-0.4,1.6-0.4,1.4,0,1.9,0.9,1.9,2.4v2.9c0,0.5,0,1.1,0.1,1.5h-1.1zm-0.2-3.5c-0.6,0-1.9,0.1-1.9,1.6,0,0.9,0.4,1.2,0.8,1.2,0.5,0,0.9-0.4,1-1v-0.4-1.4z"/>
   <path fill="#333" d="m963.5,227.6c0-0.6,0-1.2-0.1-1.8h1l0.1,1.1c0.2-0.6,0.8-1.2,1.4-1.2h0.2v1.1h-0.2c-0.7,0-1.2,0.6-1.3,1.4v0.6,3.8h-1.1v-5z"/>
   <path fill="#333" d="m967.5,229.4c0,2.1,0.8,2.5,1.6,2.5,0.5,0,0.9-0.1,1.1-0.3l0.2,0.8c-0.4,0.2-1,0.3-1.5,0.3-1.6,0-2.5-1.3-2.5-3.4,0-2.2,0.9-3.6,2.3-3.6s1.9,1.5,1.9,3v0.6h-3.1zm2.1-0.8c0-1.4-0.5-2-1-2-0.7,0-1.1,1-1.1,2h2.1z"/>
   <path fill="#333" d="m975.1,229.8-0.6,2.8h-1l2.2-9.4h1.2l2.1,9.4h-1.1l-0.6-2.8h-2.2zm1.9-0.8-0.5-2.4c-0.1-0.7-0.3-1.5-0.4-2.2h0.5c-0.1,0.7-0.3,1.5-0.4,2.2l-0.5,2.4h1.9z"/>
   <path fill="#333" d="m979.7,231.5c0.2,0.2,0.7,0.4,1.1,0.4,0.6,0,1-0.4,1-1,0-0.5-0.2-0.9-0.9-1.3-0.9-0.6-1.4-1.1-1.4-1.9,0-1.1,0.8-1.9,1.9-1.9,0.5,0,0.9,0.2,1.2,0.4l-0.3,0.8c-0.3-0.2-0.5-0.3-0.9-0.3-0.6,0-0.9,0.4-0.9,0.9s0.2,0.7,0.8,1.2c0.8,0.5,1.4,1.1,1.4,2.1,0,1.4-0.9,2-2,2-0.5,0-1.1-0.2-1.3-0.4l0.3-1z"/>
   <path fill="#333" d="m983.7,231.5c0.2,0.2,0.7,0.4,1.1,0.4,0.6,0,1-0.4,1-1,0-0.5-0.2-0.9-0.9-1.3-0.9-0.6-1.4-1.1-1.4-1.9,0-1.1,0.8-1.9,1.9-1.9,0.5,0,0.9,0.2,1.2,0.4l-0.3,0.8c-0.3-0.2-0.5-0.3-0.9-0.3-0.6,0-0.9,0.4-0.9,0.9s0.2,0.7,0.8,1.2c0.8,0.5,1.4,1.1,1.4,2.1,0,1.4-0.9,2-2,2-0.5,0-1.1-0.2-1.3-0.4l0.3-1z"/>
   <path fill="#333" d="m992,229.3c0,2.6-1.2,3.5-2.3,3.5-1.2,0-2.2-1.1-2.2-3.5,0-2.5,1.1-3.5,2.3-3.5s2.2,1.1,2.2,3.5zm-3.3,0c0,1.1,0.2,2.6,1.2,2.6,0.9,0,1.1-1.6,1.1-2.6s-0.2-2.6-1.1-2.6c-1.1-0.1-1.2,1.5-1.2,2.6z"/>
   <path fill="#333" d="m996.5,232.5c-0.2,0.1-0.6,0.3-1.1,0.3-1.5,0-2.5-1.2-2.5-3.4,0-1.9,1-3.5,2.7-3.5,0.4,0,0.8,0.1,1,0.2l-0.2,0.9c-0.1-0.1-0.4-0.2-0.8-0.2-1.1,0-1.6,1.3-1.6,2.6,0,1.6,0.6,2.5,1.6,2.5,0.3,0,0.5-0.1,0.8-0.2l0.1,0.8z"/>
   <path fill="#333" d="m998.5,224.1c0,0.4-0.3,0.7-0.7,0.7s-0.6-0.3-0.6-0.7,0.3-0.7,0.6-0.7c0.4,0,0.7,0.3,0.7,0.7zm-1.2,8.6v-6.8h1.1v6.8h-1.1z"/>
   <path fill="#333" d="m1002.5,232.7-0.1-0.7c-0.3,0.5-0.8,0.8-1.3,0.8-0.9,0-1.6-0.8-1.6-1.9,0-1.7,1.4-2.5,2.9-2.5v-0.2c0-0.9-0.2-1.5-1.1-1.5-0.4,0-0.8,0.1-1.1,0.4l-0.2-0.8c0.3-0.2,0.9-0.4,1.6-0.4,1.4,0,1.9,0.9,1.9,2.4v2.9c0,0.5,0,1.1,0.1,1.5h-1.1zm-0.2-3.5c-0.6,0-1.9,0.1-1.9,1.6,0,0.9,0.4,1.2,0.8,1.2,0.5,0,0.9-0.4,1-1v-0.4-1.4z"/>
   <path fill="#333" d="m1006,224.1v1.8h1.3v0.8h-1.3v4c0,0.9,0.3,1.1,0.7,1.1h0.4v0.8c-0.2,0.1-0.4,0.1-0.8,0.1s-0.8-0.1-1.1-0.4-0.4-0.8-0.4-1.7v-3.9h-0.8v-0.8h0.8v-1.5l1.2-0.3z"/>
   <path fill="#333" d="m1009.4,224.1c0,0.4-0.3,0.7-0.7,0.7s-0.6-0.3-0.6-0.7,0.3-0.7,0.6-0.7c0.4,0,0.7,0.3,0.7,0.7zm-1.2,8.6v-6.8h1.1v6.8h-1.1z"/>
   <path fill="#333" d="m1014.9,229.3c0,2.6-1.2,3.5-2.3,3.5-1.2,0-2.2-1.1-2.2-3.5,0-2.5,1.1-3.5,2.3-3.5s2.2,1.1,2.2,3.5zm-3.4,0c0,1.1,0.2,2.6,1.2,2.6,0.9,0,1.1-1.6,1.1-2.6s-0.2-2.6-1.1-2.6c-1-0.1-1.2,1.5-1.2,2.6z"/>
   <path fill="#333" d="m1016,227.6c0-0.8,0-1.2-0.1-1.8h0.9l0.1,0.8c0.3-0.5,0.8-0.9,1.6-0.9,0.9,0,1.6,0.7,1.6,2.3v4.6h-1.1v-4.4c0-0.8-0.2-1.6-0.9-1.6-0.4,0-0.9,0.4-1,1.1v0.6,4.3h-1.1v-5z"/>
  </g>
 </g>
</svg>
