<!-- Created with Inkscape (http://www.inkscape.org/) -->
<svg xmlns:rdf="http://www.w3.org/1999/02/22-rdf-syntax-ns#" xmlns="http://www.w3.org/2000/svg" height="100%" width="100%" version="1.1" xmlns:cc="http://creativecommons.org/ns#" xmlns:dc="http://purl.org/dc/elements/1.1/" viewBox="0 0 377.54 131.97645">
 <defs>
  <linearGradient id="SVGID_1_" y2="191.93" gradientUnits="userSpaceOnUse" y1="191.93" x2="248.33" x1="141.68">
   <stop stop-color="#379AD5" offset="0"/>
   <stop stop-color="#0066B2" offset="1"/>
  </linearGradient>
  <linearGradient id="SVGID_2_" y2="214.4" gradientUnits="userSpaceOnUse" y1="214.4" x2="217.94" x1="110.7">
   <stop stop-color="#5B5C5C" offset="0"/>
   <stop stop-color="#333" offset="1"/>
  </linearGradient>
 </defs>
 <metadata>
  <rdf:RDF>
   <cc:Work rdf:about="">
    <dc:format>image/svg+xml</dc:format>
    <dc:type rdf:resource="http://purl.org/dc/dcmitype/StillImage"/>
    <dc:title/>
   </cc:Work>
  </rdf:RDF>
 </metadata>
 <g transform="translate(172.55411,-157.80253)">
  <g transform="translate(-283.1173,20.302529)">
   <path fill="url(#SVGID_1_)" d="m240.9,177.3c-3.4-2.4-10.9-2.7-6.8-6.8,2-2,6.6-6.6,6-11.8-7.6-7.1-15.5,0-18.6-0.5-5.3-0.9-1-6.3-8.2-9.2-22.6-9.1-65.8-11.5-65.8-11.5,4,8.1,35.5,18.5,43.6,22.5,11.4,5.6,6.6,14.5,0.9,20.1-10.4,10.2-50.2,29.4-50.2,29.4-0.2,0.1-0.1,0.5,0.3,0.4,0,0,47.8-20,49.1-18,1.8,2.5-26.6,34-33.9,40.8-0.2,0.2,0,0.5,0.3,0.4,0,0,36.9-31,46.1-38,9.3-7.1,13-5.8,16.2-4.3,11,5.2,20.1,53,26.7,55.9-0.1-0.2,6.7-60.5-5.7-69.4z"/>
   <path fill="url(#SVGID_2_)" d="m217.3,238.4-4.3-5.7c0.5-1.1,1-2.3,1.4-3.4,0.5-1.4-0.2-3-1.6-3.4l-2.5-0.8c-1.2-0.4-2.5,0.1-3.2,1.2-3.2,5.6-7.7,10.5-13.4,14.2-18.9,12.2-44.3,6.8-56.6-12-12.5-19.2-6.8-44.8,12.5-57,2.3-1.4,4.6-2.6,7.1-3.6,0.8-0.3,1.3-1.2,1.1-2.1l-0.3-1.2c-0.2-0.9-1.1-1.5-2.1-1.3-1.4,0.4-2.9,0.8-4.3,1.3l-5.3-4.8c-1-0.9-2.5-1-3.6-0.3l-10.8,6.8c-1.1,0.7-1.7,2.1-1.3,3.4l2.1,6.9c-2.9,2.9-5.4,6.1-7.4,9.6l-7.2-0.3c-1.4-0.1-2.6,0.8-3,2.1l-3.9,12.2c-0.4,1.3,0.1,2.7,1.2,3.4l6.1,4c-0.3,4-0.2,8,0.5,12l-5.8,4.5c-1.1,0.8-1.5,2.3-0.9,3.5l4.8,11.9c0.5,1.3,1.8,2,3.2,1.9l7.3-0.9c2.4,3.3,5.1,6.3,8,8.9l-1.6,7.1c-0.3,1.3,0.3,2.7,1.5,3.3l11.3,6c1.2,0.6,2.7,0.4,3.6-0.6l5-5.3c3.9,1,7.9,1.6,11.9,1.6l3.4,6.4c0.6,1.2,2,1.8,3.3,1.5l12.5-2.7c1.3-0.3,2.3-1.4,2.4-2.8l0.4-7.2c1.8-0.9,3.6-1.9,5.4-3,1.7-1.1,3.3-2.2,4.8-3.5l6.6,2.7c1.3,0.5,2.7,0.1,3.5-0.9l7.8-10.1c1.2-0.9,1.3-2.4,0.4-3.5z"/>
   <path fill="#333" d="m274.3,237.1-0.7,3.2h-1.2l2.5-10.8h1.4l2.4,10.8h-1.2l-0.7-3.2h-2.5zm2.2-1-0.6-2.7c-0.2-0.8-0.3-1.7-0.4-2.5h-0.1c-0.1,0.8-0.3,1.7-0.4,2.5l-0.6,2.7h2.1z"/>
   <path fill="#333" d="m279.9,232.6,1,4.3c0.1,0.5,0.2,1.2,0.3,1.9,0.1-0.6,0.2-1.3,0.3-1.9l1-4.3h1.2l-2,7.7h-1.1l-2-7.7h1.3z"/>
   <path fill="#333" d="m287.6,240.3-0.1-0.8c-0.3,0.6-0.9,0.9-1.5,0.9-1,0-1.8-0.9-1.8-2.2,0-1.9,1.5-2.8,3.3-2.8v-0.2c0-1-0.3-1.8-1.2-1.8-0.5,0-0.9,0.2-1.3,0.4l-0.3-0.9c0.3-0.2,1-0.5,1.8-0.5,1.5,0,2.2,1,2.2,2.8v3.3c0,0.6,0,1.3,0.1,1.8h-1.2zm-0.2-4c-0.6,0-2.1,0.1-2.1,1.8,0,1,0.5,1.4,0.9,1.4,0.5,0,1-0.4,1.1-1.2v-2z"/>
   <path fill="#333" d="m291.5,230.5v2h1.5v0.9h-1.5v4.6c0,1,0.4,1.3,0.8,1.3h0.5v0.9c-0.2,0.1-0.5,0.1-0.9,0.1-0.5,0-0.9-0.1-1.2-0.5s-0.5-0.9-0.5-1.9v-4.5h-0.9v-0.9h0.9v-1.7l1.3-0.3z"/>
   <path fill="#333" d="m298.5,238.2c0,0.9,0,1.5,0.1,2.1h-1.1l-0.1-0.8c-0.2,0.4-0.8,0.9-1.7,0.9-1.4,0-1.9-1.1-1.9-3v-4.9h1.2v4.7c0,1.2,0.2,2.1,1,2.1,0.7,0,1-0.7,1.1-1,0-0.2,0.1-0.4,0.1-0.7v-5.1h1.2v5.7z"/>
   <path fill="#333" d="m304.8,229.3v9.2c0,0.5,0,1.4,0.1,1.9h-1.1l-0.1-1c-0.3,0.6-0.8,1.1-1.6,1.1-1.3,0-2.3-1.4-2.3-4,0-2.7,1.1-4,2.3-4,0.6,0,1.1,0.3,1.4,0.9v-4.1h1.3zm-1.3,6.2v-0.5c-0.1-0.8-0.6-1.5-1.1-1.5-1,0-1.4,1.4-1.4,3s0.4,2.9,1.3,2.9c0.4,0,0.9-0.2,1.2-1.3v-2.6z"/>
   <path fill="#333" d="m308.8,229.6h1.2v9.7h3v1h-4.3v-10.7z"/>
   <path fill="#333" d="m317,240.3-0.1-0.8c-0.3,0.6-0.9,0.9-1.5,0.9-1,0-1.8-0.9-1.8-2.2,0-1.9,1.5-2.8,3.3-2.8v-0.2c0-1-0.3-1.8-1.2-1.8-0.5,0-0.9,0.2-1.3,0.4l-0.4-0.8c0.3-0.2,1-0.5,1.8-0.5,1.5,0,2.2,1,2.2,2.8v3.3c0,0.6,0,1.3,0.1,1.8h-1.1zm-3-9.7c0-0.4,0.3-0.7,0.7-0.7s0.7,0.3,0.7,0.7-0.3,0.7-0.7,0.7c-0.3,0-0.7-0.3-0.7-0.7zm2.8,5.7c-0.6,0-2.1,0.1-2.1,1.8,0,1,0.5,1.4,0.9,1.4,0.5,0,1-0.4,1.1-1.2v-2zm-0.3-5.7c0-0.4,0.3-0.7,0.7-0.7s0.7,0.3,0.7,0.7-0.3,0.7-0.7,0.7-0.7-0.3-0.7-0.7z"/>
   <path fill="#333" d="m319.6,229.3h1.2v4.1c0.2-0.3,0.4-0.5,0.6-0.7,0.3-0.2,0.6-0.3,1-0.3,1,0,1.8,0.8,1.8,2.7v5.1h-1.2v-5c0-0.9-0.2-1.8-1-1.8-0.6,0-1,0.4-1.2,1.2v5.6h-1.2v-10.9z"/>
   <path fill="#333" d="m327.3,230.5v2h1.5v0.9h-1.5v4.6c0,1,0.4,1.3,0.8,1.3h0.5v0.9c-0.2,0.1-0.5,0.1-0.9,0.1-0.5,0-0.9-0.1-1.2-0.5s-0.5-0.9-0.5-1.9v-4.5h-0.9v-0.9h0.9v-1.7l1.3-0.3z"/>
   <path fill="#333" d="m330.4,236.6c0,2.4,0.9,2.9,1.8,2.9,0.5,0,1-0.1,1.3-0.3l0.2,0.9c-0.4,0.2-1.1,0.4-1.7,0.4-1.9,0-2.8-1.5-2.8-3.9,0-2.5,1.1-4.1,2.6-4.1,1.6,0,2.2,1.7,2.2,3.4v0.7h-3.6zm2.5-0.9c0-1.5-0.6-2.2-1.1-2.2-0.8,0-1.2,1.2-1.3,2.2h2.4z"/>
   <path fill="#333" d="m336.4,236.2,0,0c0.2-0.3,0.3-0.6,0.4-0.9l1.5-2.7h1.3l-2,3.3,2.2,4.5h-1.4l-1.7-3.6-0.4,0.7v2.9h-1.2v-11h1.2v6.8z"/>
   <path fill="#333" d="m345.2,236.5c0,3-1.4,4-2.6,4-1.4,0-2.5-1.3-2.5-4,0-2.8,1.3-4,2.6-4,1.4,0,2.5,1.3,2.5,4zm-3.8,0c0,1.3,0.2,3,1.3,3s1.3-1.8,1.3-3-0.2-3-1.3-3-1.3,1.8-1.3,3z"/>
   <path fill="#333" d="m351.2,236.5c0,3-1.4,4-2.6,4-1.4,0-2.5-1.3-2.5-4,0-2.8,1.3-4,2.6-4s2.5,1.3,2.5,4zm-3.9,0c0,1.3,0.2,3,1.3,3s1.3-1.8,1.3-3-0.2-3-1.3-3-1.3,1.8-1.3,3z"/>
   <path fill="#333" d="m357,229.3v9.2c0,0.5,0,1.4,0.1,1.9h-1.1l-0.1-1c-0.3,0.6-0.8,1.1-1.6,1.1-1.3,0-2.3-1.4-2.3-4,0-2.7,1.1-4,2.3-4,0.6,0,1.1,0.3,1.4,0.9v-4.1h1.3zm-1.2,6.2v-0.5c-0.1-0.8-0.6-1.5-1.1-1.5-1,0-1.4,1.4-1.4,3s0.4,2.9,1.3,2.9c0.4,0,0.9-0.2,1.2-1.3v-2.6z"/>
   <path fill="#333" d="m359.9,230.6c0,0.5-0.3,0.8-0.7,0.8s-0.7-0.3-0.7-0.8,0.3-0.8,0.7-0.8,0.7,0.3,0.7,0.8zm-1.3,9.7v-7.7h1.2v7.7h-1.2z"/>
   <path fill="#333" d="m366.1,232.6c0,0.5-0.1,1.2-0.1,2.4v4.3c0,2-0.3,2.8-0.8,3.4-0.5,0.5-1.2,0.8-2.1,0.8-0.7,0-1.3-0.2-1.7-0.4l0.3-1c0.3,0.2,0.8,0.3,1.4,0.3,1,0,1.6-0.6,1.6-2.4v-0.8c-0.3,0.6-0.8,0.9-1.5,0.9-1.4,0-2.3-1.5-2.3-3.8,0-2.8,1.3-4,2.4-4,0.8,0,1.2,0.5,1.4,1l0.1-0.9h1.3zm-1.3,2.7c0-0.2,0-0.4-0.1-0.6-0.1-0.5-0.4-1.2-1.1-1.2-0.9,0-1.4,1.2-1.4,2.9,0,2,0.6,2.9,1.4,2.9,0.4,0,0.8-0.2,1.1-1.1,0.1-0.2,0.1-0.5,0.1-0.7v-2.2z"/>
   <path fill="#333" d="m370.6,240.3-0.1-0.8c-0.3,0.6-0.9,0.9-1.5,0.9-1,0-1.8-0.9-1.8-2.2,0-1.9,1.5-2.8,3.3-2.8v-0.2c0-1-0.3-1.8-1.2-1.8-0.5,0-0.9,0.2-1.3,0.4l-0.3-0.9c0.3-0.2,1-0.5,1.8-0.5,1.5,0,2.2,1,2.2,2.8v3.3c0,0.6,0,1.3,0.1,1.8h-1.2zm-0.2-4c-0.6,0-2.1,0.1-2.1,1.8,0,1,0.5,1.4,0.9,1.4,0.5,0,1-0.4,1.1-1.2v-2z"/>
   <path fill="#333" d="m374.3,242.5c0.4-0.1,0.8-0.2,1-0.6,0.3-0.4,0.4-1,0.4-2.5v-6.9h1.2v7.2c0,1.6-0.2,2.4-0.8,3-0.5,0.5-1.2,0.7-1.7,0.7l-0.1-0.9zm2.7-11.9c0,0.5-0.3,0.8-0.8,0.8-0.4,0-0.7-0.3-0.7-0.8s0.3-0.8,0.7-0.8c0.5,0,0.8,0.3,0.8,0.8z"/>
   <path fill="#333" d="m381.5,240.3-0.1-0.8c-0.3,0.6-0.9,0.9-1.5,0.9-1,0-1.8-0.9-1.8-2.2,0-1.9,1.5-2.8,3.3-2.8v-0.2c0-1-0.3-1.8-1.2-1.8-0.5,0-0.9,0.2-1.3,0.4l-0.3-0.9c0.3-0.2,1-0.5,1.8-0.5,1.5,0,2.2,1,2.2,2.8v3.3c0,0.6,0,1.3,0.1,1.8h-1.2zm-0.2-4c-0.6,0-2.1,0.1-2.1,1.8,0,1,0.5,1.4,0.9,1.4,0.5,0,1-0.4,1.1-1.2v-2z"/>
   <path fill="#333" d="m387.7,240.3-2.5-10.8h1.3l1.1,5c0.3,1.2,0.6,2.8,0.8,4.1,0.2-1.4,0.5-2.9,0.7-4.2l1-5h1.3l-2.5,10.8h-1.2z"/>
   <path fill="#333" d="m394.8,240.3-0.1-0.8c-0.3,0.6-0.9,0.9-1.5,0.9-1,0-1.8-0.9-1.8-2.2,0-1.9,1.5-2.8,3.3-2.8v-0.2c0-1-0.3-1.8-1.2-1.8-0.5,0-0.9,0.2-1.3,0.4l-0.3-0.9c0.3-0.2,1-0.5,1.8-0.5,1.5,0,2.2,1,2.2,2.8v3.3c0,0.6,0,1.3,0.1,1.8h-1.2zm-0.1-4c-0.6,0-2.1,0.1-2.1,1.8,0,1,0.5,1.4,0.9,1.4,0.5,0,1-0.4,1.1-1.2v-2z"/>
   <path fill="#333" d="m397.3,240.3c0-0.4,0.1-1.3,0.1-1.9v-9.2h1.2v4.2c0.4-0.8,1-1,1.6-1,1.2,0,2.1,1.4,2.1,3.9,0,2.8-1.1,4.1-2.3,4.1-0.8,0-1.2-0.5-1.5-1.1l-0.1,1h-1.1zm1.3-2.7v0.5c0.3,1.1,0.8,1.4,1.1,1.4,1,0,1.3-1.3,1.3-3,0-1.5-0.4-2.9-1.4-2.9-0.6,0-1.1,0.7-1.1,1.4v2.6z"/>
   <path fill="#333" d="m406.7,240.3-0.1-0.8c-0.3,0.6-0.9,0.9-1.5,0.9-1,0-1.8-0.9-1.8-2.2,0-1.9,1.5-2.8,3.3-2.8v-0.2c0-1-0.3-1.8-1.2-1.8-0.5,0-0.9,0.2-1.3,0.4l-0.3-0.9c0.3-0.2,1-0.5,1.8-0.5,1.5,0,2.2,1,2.2,2.8v3.3c0,0.6,0,1.3,0.1,1.8h-1.2zm-0.2-4c-0.6,0-2.1,0.1-2.1,1.8,0,1,0.5,1.4,0.9,1.4,0.5,0,1-0.4,1.1-1.2v-2z"/>
   <path fill="#333" d="m412.4,230.7h-2v-1.1h5.2v1.1h-2v9.7h-1.2v-9.7z"/>
   <path fill="#333" d="m418.7,240.3-0.1-0.8c-0.3,0.6-0.9,0.9-1.5,0.9-1,0-1.8-0.9-1.8-2.2,0-1.9,1.5-2.8,3.3-2.8v-0.2c0-1-0.3-1.8-1.2-1.8-0.5,0-0.9,0.2-1.3,0.4l-0.3-0.9c0.3-0.2,1-0.5,1.8-0.5,1.5,0,2.2,1,2.2,2.8v3.3c0,0.6,0,1.3,0.1,1.8h-1.2zm-0.1-4c-0.6,0-2.1,0.1-2.1,1.8,0,1,0.5,1.4,0.9,1.4,0.5,0,1-0.4,1.1-1.2v-2z"/>
   <path fill="#333" d="m421.3,234.6c0-0.7,0-1.4-0.1-2h1.1l0.1,1.2c0.3-0.7,0.9-1.3,1.6-1.3h0.3v1.3h-0.3c-0.8,0-1.4,0.7-1.5,1.6v5h-1.2v-5.8z"/>
   <path fill="#333" d="m426.4,236.2,0,0c0.2-0.3,0.3-0.6,0.4-0.9l1.5-2.7h1.3l-2,3.3,2.2,4.5h-1.4l-1.7-3.6-0.4,0.7v2.9h-1.2v-11h1.2v6.8z"/>
   <path fill="#333" d="m431.3,232.6,1,4.3c0.1,0.5,0.2,1.2,0.3,1.9,0.1-0.6,0.2-1.3,0.3-1.9l1-4.3h1.2l-2,7.7h-1.1l-2-7.7h1.3z"/>
   <path fill="#333" d="m438.9,240.3-0.1-0.8c-0.3,0.6-0.9,0.9-1.5,0.9-1,0-1.8-0.9-1.8-2.2,0-1.9,1.5-2.8,3.3-2.8v-0.2c0-1-0.3-1.8-1.2-1.8-0.5,0-0.9,0.2-1.3,0.4l-0.3-0.9c0.3-0.2,1-0.5,1.8-0.5,1.5,0,2.2,1,2.2,2.8v3.3c0,0.6,0,1.3,0.1,1.8h-1.2zm-0.2-4c-0.6,0-2.1,0.1-2.1,1.8,0,1,0.5,1.4,0.9,1.4,0.5,0,1-0.4,1.1-1.2v-2z"/>
   <path fill="#333" d="m441.5,234.6c0-0.7,0-1.4-0.1-2h1.1l0.1,1.2c0.3-0.7,0.9-1.3,1.6-1.3h0.3v1.3h-0.3c-0.8,0-1.4,0.7-1.5,1.6v5h-1.2v-5.8z"/>
   <path fill="#333" d="m448.3,240.3-0.1-0.8c-0.3,0.6-0.9,0.9-1.5,0.9-1,0-1.8-0.9-1.8-2.2,0-1.9,1.5-2.8,3.3-2.8v-0.2c0-1-0.3-1.8-1.2-1.8-0.5,0-0.9,0.2-1.3,0.4l-0.3-0.9c0.3-0.2,1-0.5,1.8-0.5,1.5,0,2.2,1,2.2,2.8v3.3c0,0.6,0,1.3,0.1,1.8h-1.2zm-0.2-4c-0.6,0-2.1,0.1-2.1,1.8,0,1,0.5,1.4,0.9,1.4,0.5,0,1-0.4,1.1-1.2v-2z"/>
   <path fill="#333" d="m453.3,229.6h1.2v9.7h3v1h-4.3v-10.7z"/>
   <path fill="#333" d="m459.9,230.6c0,0.5-0.3,0.8-0.7,0.8s-0.7-0.3-0.7-0.8,0.3-0.8,0.7-0.8,0.7,0.3,0.7,0.8zm-1.3,9.7v-7.7h1.2v7.7h-1.2z"/>
   <path fill="#333" d="m462.7,230.6c0,0.5-0.3,0.8-0.7,0.8s-0.7-0.3-0.7-0.8,0.3-0.8,0.7-0.8,0.7,0.3,0.7,0.8zm-1.4,9.7v-7.7h1.2v7.7h-1.2z"/>
   <path fill="#333" d="m465.6,230.5v2h1.5v0.9h-1.5v4.6c0,1,0.4,1.3,0.8,1.3h0.5v0.9c-0.2,0.1-0.5,0.1-0.9,0.1-0.5,0-0.9-0.1-1.2-0.5s-0.5-0.9-0.5-1.9v-4.5h-0.9v-0.9h0.9v-1.7l1.3-0.3z"/>
   <path fill="#0066b2" d="m299.8,207.1-3.5,15.9h-5.8l12.1-53h6.7l11.8,53h-6l-3.5-15.9h-11.8zm10.9-4.8-2.8-13.4c-0.8-3.8-1.5-8.2-2.1-12.1h-0.3c-0.6,4-1.4,8.6-2.1,12.1l-2.7,13.4h10z"/>
   <path fill="#0066b2" d="m326,168.6h6.1v54.4h-6.1v-54.4z"/>
   <path fill="#0066b2" d="m343.2,185,4.8,21.4c0.5,2.6,1.2,6,1.6,9.3h0.2c0.4-3.1,1-6.4,1.6-9.3l4.7-21.4h6l-9.9,38h-5.4l-9.9-38h6.3z"/>
   <path fill="#0066b2" d="m381.7,223-0.4-4h-0.2c-1.6,2.9-4.3,4.6-7.5,4.6-5.1,0-9-4.3-9-10.8,0-9.5,7.6-13.8,16.2-13.8v-1.2c0-5.1-1.3-8.6-6.1-8.6-2.4,0-4.5,0.8-6.3,2l-1.3-4.2c1.6-1.2,5.1-2.5,8.9-2.5,7.6,0,10.9,5,10.9,13.6v16.4c0,2.9,0,6.2,0.4,8.6h-5.6zm-0.8-19.6c-3.1,0-10.5,0.5-10.5,8.8,0,5,2.5,6.8,4.6,6.8,2.7,0,5-2,5.7-5.7,0.2-0.7,0.2-1.5,0.2-2.1v-7.8z"/>
   <path fill="#0066b2" d="M402,174.9v10.1h7.3v4.6h-7.3v22.6c0,5,1.8,6.3,4,6.3,0.9,0,1.7-0.1,2.4-0.2l0.2,4.6c-1.1,0.4-2.5,0.6-4.5,0.6-2.4,0-4.5-0.6-6-2.3s-2.3-4.3-2.3-9.6v-22h-4.6v-4.6h4.6v-8.3l6.2-1.8z"/>
   <path fill="#0066b2" d="m429.7,223-0.4-4h-0.3c-1.6,2.9-4.3,4.6-7.5,4.6-5.1,0-9-4.3-9-10.8,0-9.5,7.6-13.8,16.2-13.8v-1.2c0-5.1-1.3-8.6-6.1-8.6-2.4,0-4.5,0.8-6.3,2l-1.3-4.2c1.6-1.2,5.1-2.5,8.9-2.5,7.6,0,10.9,5,10.9,13.6v16.4c0,2.9,0,6.2,0.4,8.6h-5.5zm-0.9-19.6c-3.1,0-10.5,0.5-10.5,8.8,0,5,2.5,6.8,4.6,6.8,2.7,0,5-2,5.7-5.7,0.2-0.7,0.2-1.5,0.2-2.1v-7.8z"/>
   <path fill="#0066b2" d="m441.5,168.6h6.1v54.4h-6.1v-54.4z"/>
  </g>
 </g>
</svg>
