<svg xmlns:rdf="http://www.w3.org/1999/02/22-rdf-syntax-ns#" xmlns="http://www.w3.org/2000/svg" viewBox="0 0 884.25 585.09" version="1.1" xmlns:cc="http://creativecommons.org/ns#" xmlns:dc="http://purl.org/dc/elements/1.1/" viewbox="0 0 883.3 583.52">
 <metadata>
  <rdf:RDF>
   <cc:Work rdf:about="">
    <dc:format>image/svg+xml</dc:format>
    <dc:type rdf:resource="http://purl.org/dc/dcmitype/StillImage"/>
    <dc:title/>
   </cc:Work>
  </rdf:RDF>
 </metadata>
 <path d="m539.49,12.96-3.2812,7.7188,1.0625,5.9062,4,5.375-0.65625,3.5-4.7812,3.8125-10.75-8.5938-2.3125-3.5625-5.2812,0.28125-2.4062-7.4375-2.9062,8.3125,1.2812,5.7188,6.4062,13.438-9.2812,5.9062-9.5312,6.4688-15.375-4.2188,0-0.96875-2.0938-3.1875-7.9062,3.9688-2.6562-3.75-5.2188-3.4375,0.75,13.531-8.7188-5.8438-10.562,0.1875-12.344,1.1562-5.4688-12.812-8.9062-4.2812-2.2812,6.2188,0.375,3.125,0.125,1.5312,0.3125,3.7812,4.1875,8.3125-7.5938,7.0938-7-2.4688-0.6875-4.7188-3.0625-1.8438-0.0937,4.3438-5.9062,0.28125,3.4688,4.5312-0.875,3.9375-11.844-5.125-8.4688,2.5938-17.844-7.9688-3.5938,3.4375-0.46875,4.875-13.906,11.344-7.0313-0.75-1.8125,3.0938,8.6563,7.5938-4.7813,5.8125-22.281-13.375,3.6562,15.156,5.5625,6.75-4.875,9.125-12.469-3.3438-13.969,2.8438-12.25-3.3125-7.125,4.375-1.0937,8.1875-8.8125-2.7188-17.281,5.9375-1.7187-3.1875-4.5,10.125,7.0312,21.281-0.031,4.2812-3.5625-0.0625-4.375,3.8438-5.0938,13.625-2.3437-0.46875-1.625,1.1562,7.6875,9.1562,6.9687,3.0312,3.5,2.4062,1.8125-4.0625,1.8438-4.875,5.5937,5.625-0.7187-5.3125,1.2187-0.59375,2.7188,1.0625,0.2187,9.5625-6.4375-1.4688-5.9375,4.7812-6.4375-2.6562-2.0312,3.4375-0.2188,0.375-1.5937,2.7812-1.5625-0.65625-2.8125-2.125-0.5-0.375-0.125-0.0625,0,0.0625-0.094,0.375-1.4375,6.1875,3.0313,6.9062-0.2188,2.3438,2.6563,3.5312,7.75,15.406-5.2813,0.875-4.6562,7.75,11.312,2.1562,17.219-1.5938,8.0625-0.65625,1.6875,3.5312-0.6875,4.9062-5.0937,1.0938-7.0938,3-4.5312-0.0937-3.5313,1.2812-7.7812-2.8438,1.0937,4.5,3.4688,2.625-7.0313,0.46875-1.8125,3.0625-0.875,5.0625,0.375,0.59375,0.6875,5.3125,2.8438,14.531-4.8125,8.7188,7.8125-0.65625-0.7813-0.59375,2.1563-0.375,1.6562,5.3438,6.9063,6.75,6.0937-0.25,2.0938,3.9375-1,12.312-0.4688,1.75,0.75,4.9062,1.5625,8.8438,3.875,13.562,7.3125,6.4062,0.4688-4.0938,6.7187-1.6562,8,9.9375,1.7813-2.125,11.062,5.5,3.0312-3.4688,1.7188,3.125,5.0937,8.9375,0.9375,2.4062,2.4688,3.7188,5.4687,1.0625,4-5.1875,7.5313-3.5938,6.625,0.3125,1.6875-14.125,2.1562-10.719,5.4375-2.375,11.375-1.5625,23,16.25-0.90625,6.6875-13.531,13.219-0.28125,4.0625-0.0312,0.34375-0.25,2.8438,0.375,13.125-1.1875,33.406-13.438,38.906-2.4375,6.875-0.4375,0.5,7.75,3.25,6.3438-4.1875,1.1562-8.9688,23.375-6.5938,15.562-4.8125,18.094-4.9375,17.406-7.7188,17.344-18.094,5.7812,2.6562,6.0938-0.875,5,16.156,7.375,3.0312-5.8125-14.531,5-4.4062,20.844,16.406,0.71875,2.5312,7.9375,5.4375,11.969,9.0312,13.094,9.8438,6.375-4.1875,11.5,10.781,24.938,5.6875,4.8438,2.6875-0.96875,10.531,21.969,19.75,9,21.313,32.5,20.156,3,8.2812,3.4375,2.4062,13.312,0.28125,4-4.4688,19.625-12.344,16.875-14.188,13.594,5.3438,17.75,14.406,16.406,2.25,11.344-1.5625,8.3438-18.031,9.2812-25.281,8.3438,3.6875,1.7812-2.2813-5.0625-21.219,3.875-8.1562,23.375-5.8438,11.344,2.3438,3.125-21.438-14.031-4.1875-3.9375-9.2812-3.125-12.375-4.3125,2.2188-0.65625,4.0938,1.3125,3.7812-0.84375,1.375-4.6875-10.875-2.0312-7.4375-1.0625-15.531-6.9062-7.5312-2.0625-4.9375-1.9062-4.7188-1.6875-2.4062-1.5312-3.5312-0.4375-2-0.0937-0.1875-0.15625-0.875-1.1875-5.375-0.0625-0.34375-0.59375-2.5938,0.4375-1.9375-0.625-3.9062-7.3125-11.156-0.0937-6.8438-0.28125-4.0938,1.1562-9.5938-11.688-7.4062-2.2188-1-2.375-0.28125-1.625,3.0938-5.2812-1.4688-1-8.5312-0.9375-7.8125-0.78125-6.2188-4.5938-19.75-6.125-19.344-3.3125-15.188-17.625-21.031-4.7812-0.6875-7-7.1875,2.7188-21.438c0-0.00002,7.1046-9.3766,9.4062-11.938l0.625-0.59375,0.40625-0.375,6.7188-6.5312,13.656-8.9688,22.625-4.5,43.812,0.0312v0.15625l7.1875-5.9062,2.875-19.688,11.875-19.156,1.0625-15.844,13.5-9.6875,16.469-7.6562,8.6562-16.812-20.344-23.219-2.6562-1.9062-10.062,13.219-29.156,0.65625-50.125-7.7812-53,6.0625-13.344-8.6562-4.4062-2.25-3.5-2.4062-6.5312-5.7812-2.125-3.1875-8.1562-4.0312-3.0625-2.5938-10.562-0.40625,2.0938,3.7812-12.031,4.4375-22.312-10.375-29.781-6.7812-2.5-4.9688-4.8125-1.8438,1.375-2.125-9.625,1.5625-1.8438-4.9062-0.96875,9.375-4.375,4.625-8.2188-9.3438-0.1875,10.156-9.5,2.75-2.125-1.5938-3.9062-19.625-4.125-0.4375-3.2188-4.375zm-94.844,6.0625-0.59375,0.96875,2.875,1.9688-1.6562,5.9062,7.625-0.28125-5.75-6.3438zm-61.844,11.594-5.0312,7.9375,8.25,8.5625,3-2.2812zm-72.531,62.656-4.8125,3.0312,8.125,7.2188,1.8437-3.4688zm-7.9375,3-6.625,0.28125,10.375,10.156,0.8437-3.3125zm-72.75,9.25,2.4687,5.3438,3.5,0.8125-0.375-2.75zm-96.062,54.594-7.2813,0.25-2.6875,6.5938,0,0.21875-3.25,7.1875-10.188,0.59375-0.8125,3.0938-0.1562,7.4688-3.0625-1.4375-1.3125,4.4688,1.5937,0.8125-2.625,3.0938-2.5-3.1875-1,2.7188-1.0625,4.9062-12.281-1.625-22.938,1.3438-6.0625-1.125-4.4688-1.8438-3.9687,2.6875,3.0937,3.1562,0.3438,0.375,2.7187,2.875,9.4375,7.5938,17.281-1.4375,6.625-0.28125,10.5,4.5,2.625,18.438,1.6875,1.9688,0.1562,4.3125,1.7188,0.4375,1.0625,4.9062,2.625,6.6875-4.125,2.125,0.9062,3.9062,23.812,4.3125,11.281-19.156-0.2813-5.0938,1.7813-1.3438,15.438-8.0938,2.6562,1.4375,7.9063-3.4062,0.9687,0.40625,0.75,3.5312,5.9375-4.4062,3.3125,0.65625,0.9688-0.5625,0.6875,5.2812,4.9687-3.4062-2.0312-8.2812-2.0313-7.0938-2.25-3.1562-5.1875-5.3438-1.1875-2.3125-0.1875-0.375-4.8437-9.375-7-2.6562-4.0625-4.1875-3.9063-0.0937-8.1875-2.3125-3.5-0.0625-3.875-12.781-4.5312-7.9062zm71.75,12.281-6.9063,3-1.3437-0.25,2.3437,10.812,0.5313,4.7188,8.5,3.3125,2.4375-4.4688,1.75,0.59375,4.25,4,2.3437,1.0312,6.5313-5,0.9687-0.34375,3.5313,0.625-3-9.25-1.375-2.2812-1.0938-1.4375-5.4687-0.125-3.9375,1.3125zm-44.844,56.719-12.094,7.4062-2.3438-0.0625,2.6563,4.75,2.7812-1.0938-0.2812,4.2812,2.8125-4.25,2.5625-1.75,4.0625-9.2812zm40.188,37.312-3.0937,0.5625-2.25,5.875,0.8437,3.6562,0.1875,1.75-2.5937,3.0625-6.0625,0.6875-0.3438,7.4375,6.1875,4.625,1.7813-1.75,4.4375,4,5.875,8.9062,6.125-3.7812,5.4687,2.25,5.25,1.4688,8.25-1.25,4.5,0.0937,1.75-1.125-5.5937-3.6562-6.7813-14.156,1.1875-1.75,0.094-5.5-25.219-11.406zm-82.938,9.4375-2.1562,0.90625-11,12.531-21.188,3.7188-4.3125-0.625-1.0313,2.2812,0.2813,17.656-7.0313,0.25,0.4375-4.0938-0.9062-2.9375-1.4688-5.9375-2.75,0.5625,0.3438,2.1562-11.094,8.5938-1.1875,10.562-1.625,3.8438,0.75,2.1875-3.9687,2.2812-0.4063,0-6.6562-20.094-13.594-5.5312-1,0.59375,0.25,6.625-9.875-2.9062,3.3438,7.0938,5.25,2.25,1.7187,3.1875,1.6563,6.6562,5.9375,5.4062,0.8125,8.4062-2.1563,1.1562,3.2813,3.1875-4.75,2.6562-4.4688-1.4688,1.9688,8.2812-2.9375,1.2812-6.9063-8.3125,2.8125,7.875-7.8125,0.28125,7.5313,15.188,10.5,4.0938-0.6875-5.3125,0.7812-0.34375,3.4375,3.9375,3.9688,8.9062,1.1562,1,1.375,2.875,0.1563,0.34375,2.0625,4.2812,5,3.2188,6.5937,4.4062,3.9063-0.3125,2.3125,1.4375,1.75,2.5625-8.375,17.469-8.75-2.3125-9.125,17.438-4.4063,4.7812-2,13.094,1.75,1,3.0938,2.625,0.75,0.78125,0.3125,4.875,2.7187,2.4062,19.344-19.969,0-0.4375,3.75-14.938,0.5312-4.9062,0.031-2.1562,6.3437-16.531-0.9062-12.75,15.219-6.0625,0.875-0.34375,7.3438-2.9375,4.9687-4.2188,5.5938,4.8438,3.6562-7.375,1.0938,3.5312,8,2.2812,4.2812,0.0625,0.5938-1.3125-2.25-3.375,3.6875,0.0625,2.8437,6.125,3.4688,2.1875,7.125-2.8125-6.3125-9.0938,12.219-2.7188,4.0313,3,0.7812-0.375,1.8438-3.875-0.7813-1.7812,4.9375-13.219,1,0.59375,0.8438,7.4688,6.8437-0.25,0-0.40625,4.6563-8.9375,0.094-3.9062-3.5-2.2188,4.5625-3.4375,2.4688,2.8125,3.5,2.625,3.5625-1.3438,1.0625-5.25,6.4375,1.4688-1.0313-8.0312,0.4688-3.5,5.25,1.4688,5.4375-8.0938-0.5-4.5312,2.6562,2.5938,0.9688,0.21875,3.5,2.5625,1.5937,1.0312-0.5,2.5312,0,0.1875,3.125,0.875,0.9688-0.1875-5.6563-10.5,1.75-0.125,11.406,6.4375,0.8437-0.96875-6.25-10.688-4.0937-2.625-3.5-1.7812-2.875-2.2188-5.3438-8.5-11.219-6.875-10.781-9.375-18.531-1.7188-8.25,0.40625-2.0625,5.0625-7.7813-1.6875-6.7187,4.5625-6.5-8.9375-1.75-2.5625zm-95.781,58.719-9.8125,1.5938,1.7187,3.5312,11.531-1.1562-1.2813-2.75zm761.06,8.0312,2.0938,2.75,7.5938,1.875-0.875-4.2812zm-677.25,52.375-3.0313,5.8438-1.0312,3.5,1.7187,2.9375,3.125-1.6875,0.1875-7.8438zm207.22,12.969-9.6562,3.9688,0.25,4.6875,2.875,5.3438zm-111.53,83.125-1.0938,7,7.7813,2.6875,0.625-2.5312z" stroke="#477d47" stroke-miterlimit="4" stroke-dasharray="none" stroke-width="2.79999995000000013" fill="#bdf9a3"/>
</svg>
